<?xml version="1.0" encoding="utf-8"?>
<!-- Generator: Adobe Illustrator 17.1.0, SVG Export Plug-In . SVG Version: 6.00 Build 0)  -->
<!DOCTYPE svg PUBLIC "-//W3C//DTD SVG 1.1//EN" "http://www.w3.org/Graphics/SVG/1.1/DTD/svg11.dtd">
<svg version="1.1" id="Layer_1" xmlns="http://www.w3.org/2000/svg" xmlns:xlink="http://www.w3.org/1999/xlink" width="20" height="20" x="0px" y="0px"
	 viewBox="0 0 20 20" enable-background="new 0 0 20 20" xml:space="preserve">
<rect x="0.1" y="0.1" fill="#FFFFFF" width="20" height="20"/>
<g>
	<path fill="#272727" d="M13.9,2.5l-2,0C9.7,2.5,8.3,4,8.3,6.3V8h-2C6.2,8,6,8.1,6,8.3v2.5c0,0.2,0.1,0.3,0.3,0.3h2v6.3
		c0,0.2,0.1,0.3,0.3,0.3h2.6c0.2,0,0.3-0.1,0.3-0.3v-6.3h2.3c0.2,0,0.3-0.1,0.3-0.3l0-2.5c0-0.1,0-0.2-0.1-0.2S13.9,8,13.8,8h-2.3
		V6.5c0-0.7,0.2-1.1,1.1-1.1l1.3,0c0.2,0,0.3-0.1,0.3-0.3V2.8C14.2,2.7,14.1,2.5,13.9,2.5z"/>
</g>
</svg>
