<?xml version="1.0" encoding="utf-8"?>
<!-- Generator: Adobe Illustrator 17.1.0, SVG Export Plug-In . SVG Version: 6.00 Build 0)  -->
<!DOCTYPE svg PUBLIC "-//W3C//DTD SVG 1.1//EN" "http://www.w3.org/Graphics/SVG/1.1/DTD/svg11.dtd">
<svg version="1.1" id="Layer_1" xmlns="http://www.w3.org/2000/svg" xmlns:xlink="http://www.w3.org/1999/xlink" width="20" height="20" x="0px" y="0px"
	 viewBox="0 0 20 20" enable-background="new 0 0 20 20" xml:space="preserve">
<rect x="0.1" y="0.1" fill="#FFFFFF" width="20" height="20"/>
<g>
	<path fill="#272727" d="M16.4,3.6C16.1,3.2,15.7,3,15.2,3H4.8C4.3,3,3.9,3.2,3.6,3.6C3.2,3.9,3,4.3,3,4.8v10.4
		c0,0.5,0.2,0.9,0.5,1.3C3.9,16.8,4.3,17,4.8,17h10.4c0.5,0,0.9-0.2,1.3-0.5c0.4-0.4,0.5-0.8,0.5-1.3V4.8C17,4.3,16.8,3.9,16.4,3.6z
		 M8,8.1c0.5-0.5,1.2-0.8,2-0.8c0.8,0,1.4,0.3,2,0.8c0.5,0.5,0.8,1.2,0.8,1.9c0,0.7-0.3,1.4-0.8,1.9c-0.5,0.5-1.2,0.8-2,0.8
		c-0.8,0-1.4-0.3-2-0.8c-0.5-0.5-0.8-1.2-0.8-1.9C7.2,9.2,7.5,8.6,8,8.1z M15.4,14.8c0,0.2-0.1,0.3-0.2,0.4
		c-0.1,0.1-0.2,0.2-0.4,0.2H5.1c-0.2,0-0.3-0.1-0.4-0.2c-0.1-0.1-0.2-0.2-0.2-0.4V8.9h1.3c-0.1,0.4-0.2,0.8-0.2,1.2
		c0,1.2,0.4,2.2,1.3,3c0.8,0.8,1.9,1.2,3.1,1.2c0.8,0,1.5-0.2,2.2-0.6c0.7-0.4,1.2-0.9,1.6-1.5c0.4-0.6,0.6-1.3,0.6-2.1
		c0-0.4-0.1-0.8-0.2-1.2h1.2L15.4,14.8L15.4,14.8L15.4,14.8z M15.4,6.7c0,0.2-0.1,0.3-0.2,0.4c-0.1,0.1-0.3,0.2-0.4,0.2h-1.6
		c-0.2,0-0.3-0.1-0.4-0.2c-0.1-0.1-0.2-0.3-0.2-0.4V5.2c0-0.2,0.1-0.3,0.2-0.4c0.1-0.1,0.3-0.2,0.4-0.2h1.6c0.2,0,0.3,0.1,0.4,0.2
		c0.1,0.1,0.2,0.3,0.2,0.4V6.7z"/>
</g>
</svg>
