<?xml version="1.0" encoding="utf-8"?>
<!-- Generator: Adobe Illustrator 17.1.0, SVG Export Plug-In . SVG Version: 6.00 Build 0)  -->
<!DOCTYPE svg PUBLIC "-//W3C//DTD SVG 1.1//EN" "http://www.w3.org/Graphics/SVG/1.1/DTD/svg11.dtd">
<svg version="1.1" id="Layer_1" xmlns="http://www.w3.org/2000/svg" xmlns:xlink="http://www.w3.org/1999/xlink" width="104"
		height="64" x="0px" y="0px"
	 viewBox="0 0 104 69.7" enable-background="new 0 0 104 69.7" xml:space="preserve">
<g>
	<g>
		<polygon fill="#ED1C24" points="52,23.6 20.6,42.1 20.6,59.4 52,40.9 		"/>
		<polygon fill="#ED1C24" points="52,40.9 83.4,59.4 83.4,42.1 52,23.6 		"/>
		<polygon fill="#ED1C24" points="52,44 52,44 52,44 52,44 40.6,50.7 40.6,66.6 52,59.8 63.4,66.6 63.4,50.7 52,44 		"/>
		<path fill="#ED1C24" d="M103.5,33.1L52,2.7L0,33.4v17.3l52-30.7l52,30.7V34.4C103.8,34,103.6,33.5,103.5,33.1z"/>
	</g>
</g>
<path fill="none" d="M156.5,50.4c-3,0-5.9,0-8.8-0.1c-0.3,0.5-0.7,1.1-1.1,1.6h10.3C156.8,51.4,156.7,50.9,156.5,50.4z"/>
<path fill="none" d="M296,42.1v-2c-0.9,0.2-1.9,0.5-2.8,0.7c-0.1,0.3-0.2,0.5-0.2,0.8C294,41.7,295,41.9,296,42.1z"/>
<path fill="none" d="M282.4,95.6c-6,1.4-11.4,3.6-17.7,2.8c-2.7-0.4-4.2-3.8-3.5-6.2c0,0,0,0,0,0c-6.7,0.7-13.3,0.7-19.8-1.2
	c-3.1-0.9-4.6-4.5-3-7.3c2.4-4,6.9-6.3,11.4-7.9c-1.6-0.2-3.2-0.5-4.7-0.7c-8.1,4.7-18.3,8-25.1,1.4c-0.7,0.4-1.4,0.7-2.3,0.8
	c-11,1-27.4,5.3-37.3-1.8c-3.6-0.1-7.1-0.2-10.7-0.2c-0.6,0-1.2-0.1-1.7-0.3v41.9h128V93.9C291.4,94.2,286.8,94.6,282.4,95.6z"/>
</svg>
