<?xml version="1.0" encoding="utf-8"?>
<!-- Generator: Adobe Illustrator 17.1.0, SVG Export Plug-In . SVG Version: 6.00 Build 0)  -->
<!DOCTYPE svg PUBLIC "-//W3C//DTD SVG 1.1//EN" "http://www.w3.org/Graphics/SVG/1.1/DTD/svg11.dtd">
<svg version="1.1" id="Layer_1" xmlns="http://www.w3.org/2000/svg" xmlns:xlink="http://www.w3.org/1999/xlink" width="66" height="49" x="0px" y="0px"
	 viewBox="0 0 66 49" enable-background="new 0 0 66 49" xml:space="preserve">
<g>
	<path fill="none" d="M-27.9,57.6c0-21.8,0-43.6,0-65.4c40.7,0,81.5,0,122.2,0c0,21.8,0,43.6,0,65.4
		C53.6,57.6,12.8,57.6-27.9,57.6z M29.4,41.2c0-0.2,0-0.3,0.1-0.4c0.4-3.1,2.6-5.5,5.6-6.2c4.1-1,8.3,1.9,8.8,6.1
		c0.1,0.5,0.2,0.6,0.6,0.5c4.3,0,8.6,0,12.9,0c0.2,0,0.4,0,0.5,0c0-1,0-2,0-3c-4.9,0-9.7,0-14.6,0c0-11,0-21.9,0-32.8c-1,0-2,0-3,0
		c0,9.9,0,19.8,0,29.7c-0.1-0.1-0.2-0.2-0.3-0.3c-3.3-6.7-6.7-13.4-10-20.1c-1.6-3.3-3.2-6.5-4.9-9.8c-0.8-1.7-2.2-2.6-4-2.6
		c-3.1,0-6.3,0-9.4,0c-0.5,0-1,0.1-1.4,0.3C9.2,3.2,8.7,4.3,8.8,5.6c0,4.9,0,9.8,0,14.7c0,0.2,0,0.4,0,0.7c-0.9,0-1.8,0-2.7,0
		c-2.3,0-3.9,1.6-3.9,4c0,4.1,0,8.2,0,12.4c0,0.1,0,0.3,0,0.5c1.9-2.7,4.4-4,7.6-3.3c3.5,0.7,5.3,3.1,5.9,6.7
		C20.2,41.2,24.8,41.2,29.4,41.2z M8.3,47.6c3.1,0,5.8-2.6,5.8-5.9c0-3.3-2.5-5.8-5.8-5.9c-3.1,0-5.7,2.6-5.7,5.8
		C2.6,44.9,5.2,47.5,8.3,47.6z M36.7,47.6c3.1,0,5.8-2.7,5.8-5.9c0-3.2-2.6-5.8-5.7-5.9c-3.1,0-5.8,2.7-5.8,5.9
		C30.9,44.9,33.5,47.6,36.7,47.6z M62.7,8.8c0-0.1,0-0.1,0-0.2c-0.5-0.1-1.1-0.2-1.6-0.2c-4,0-8,0-12.1,0c-0.6,0-1.2,0-1.8,0
		c-0.4,0-0.9,0.2-1.4,0.4C46,8.9,46.1,8.9,46.1,9c2.6,1.6,5.2,3.3,7.8,5c0.3,0.2,0.5,0.1,0.7,0c2.2-1.4,4.3-2.7,6.5-4.1
		C61.7,9.5,62.2,9.1,62.7,8.8z M45.9,23.9c0.1,0.1,0.2,0.1,0.2,0.2c2.6,1.6,5.2,3.3,7.8,4.9c0.3,0.2,0.5,0.1,0.7-0.1
		c2.6-1.6,5.2-3.3,7.8-4.9c0.1-0.1,0.2-0.2,0.4-0.3c-0.3-0.1-0.6-0.2-0.8-0.3c-0.3-0.1-0.6-0.1-0.9-0.1c-4.5,0-9,0-13.4,0
		C47.1,23.3,46.5,23.4,45.9,23.9z M46.1,36.3c0,0.1,0,0.1,0,0.2c0.5,0.1,1,0.3,1.5,0.3c4.6,0,9.3,0,13.9,0c0.4,0,0.8-0.2,1.3-0.2
		c-0.1-0.1-0.1-0.2-0.2-0.2c-2.7-1.7-5.4-3.4-8-5.1c-0.1-0.1-0.4,0-0.6,0.1c-1.6,1-3.1,2-4.7,2.9C48.2,34.9,47.1,35.6,46.1,36.3z
		 M62.6,21.5c0-0.1,0-0.1,0-0.2c0,0-0.1-0.1-0.1-0.1c-2.7-1.7-5.3-3.4-8-5c-0.1-0.1-0.5,0-0.6,0.1c-1.6,1-3.2,2-4.8,3
		c-1,0.6-2,1.3-3.1,2c0.5,0.4,1,0.5,1.6,0.5c4.6,0,9.2,0,13.8,0C61.8,21.7,62.2,21.6,62.6,21.5z M55.8,30.1c2.8,1.7,5.4,3.4,8.2,5.2
		c0.1-0.5,0.3-1,0.3-1.4c0-2.6,0-5.2,0-7.8c0-0.4-0.1-0.8-0.2-1.2C61.2,26.7,58.6,28.4,55.8,30.1z M64,9.9c-2.8,1.8-5.5,3.5-8.2,5.2
		c2.8,1.7,5.4,3.4,8.2,5.2c0.1-0.6,0.2-1,0.2-1.5c0-2.5,0-5,0-7.6C64.2,10.8,64.1,10.4,64,9.9z M44.8,10.1c-0.1,0.5-0.2,0.8-0.2,1.2
		c0,2.5,0,5,0,7.5c0,0.4,0.1,0.8,0.2,1.3c2.7-1.7,5.2-3.3,7.9-5C50.1,13.4,47.5,11.8,44.8,10.1z M52.7,30.1c-2.7-1.7-5.2-3.3-7.9-5
		c-0.1,0.5-0.1,0.9-0.1,1.3c0,2.4,0,4.9,0,7.3c0,0.4,0.1,0.9,0.2,1.4C47.5,33.4,50.1,31.8,52.7,30.1z"/>
	<path fill="#E7E7E7" d="M29.4,41.2c-4.6,0-9.2,0-13.8,0c-0.5-3.5-2.4-5.9-5.9-6.7c-3.2-0.7-5.7,0.6-7.6,3.3c0-0.2,0-0.3,0-0.5c0-4.1,0-8.2,0-12.4
		c0-2.4,1.6-4,3.9-4c0.9,0,1.8,0,2.7,0c0-0.3,0-0.5,0-0.7c0-4.9,0-9.8,0-14.7c0-1.3,0.4-2.4,1.6-2.9c0.4-0.2,0.9-0.3,1.4-0.3
		c3.1,0,6.3,0,9.4,0c1.8,0,3.2,0.9,4,2.6c1.6,3.2,3.2,6.5,4.9,9.8c3.3,6.7,6.7,13.4,10,20.1c0.1,0.1,0.1,0.2,0.3,0.3
		c0-9.9,0-19.7,0-29.7c1,0,2,0,3,0c0,10.9,0,21.9,0,32.8c4.9,0,9.7,0,14.6,0c0,1,0,2,0,3c-0.2,0-0.4,0-0.5,0c-4.3,0-8.6,0-12.9,0
		c-0.4,0-0.6-0.1-0.6-0.5c-0.5-4.2-4.7-7.1-8.8-6.1c-3,0.7-5.1,3.1-5.6,6.2C29.5,40.9,29.4,41,29.4,41.2z M13.3,16.9c0,3,0,6,0,9
		c0,0.9,0.2,1.1,1,1.1c5.3,0,10.7,0,16,0c1,0,1.3-0.5,0.8-1.4c-3-6-6-12-9-18c-0.3-0.5-0.7-0.8-1.2-0.8c-2.1,0-4.3,0-6.4,0
		c-0.9,0-1.1,0.2-1.1,1.2C13.3,11,13.3,14,13.3,16.9z"/>
	<path fill="#E7E7E7" d="M8.3,47.6c-3.2,0-5.8-2.7-5.7-5.9c0-3.2,2.6-5.9,5.7-5.8c3.2,0,5.7,2.6,5.8,5.9C14.2,44.9,11.5,47.6,8.3,47.6z M8.4,38.8
		c-1.6,0-2.9,1.3-2.9,2.9c0,1.6,1.3,2.9,2.9,2.9c1.6,0,2.8-1.3,2.9-2.9C11.3,40.1,10,38.8,8.4,38.8z"/>
	<path fill="#E7E7E7" d="M36.7,47.6c-3.1,0-5.8-2.7-5.8-5.9c0-3.2,2.6-5.9,5.8-5.9c3.1,0,5.7,2.6,5.7,5.9C42.4,44.9,39.8,47.6,36.7,47.6z
		 M33.8,41.7c0,1.6,1.3,2.9,2.9,2.9c1.6,0,2.9-1.3,2.9-3c0-1.6-1.3-2.9-2.9-2.9C35.1,38.8,33.8,40.1,33.8,41.7z"/>
	<path fill="#E7E7E7" d="M62.7,8.8c-0.5,0.3-1.1,0.7-1.6,1c-2.2,1.4-4.3,2.7-6.5,4.1c-0.2,0.1-0.4,0.2-0.7,0c-2.6-1.7-5.2-3.3-7.8-5
		c-0.1,0-0.1-0.1-0.3-0.3c0.5-0.2,1-0.3,1.4-0.4c0.6-0.1,1.2,0,1.8,0c4,0,8,0,12.1,0c0.5,0,1.1,0.1,1.6,0.2
		C62.7,8.6,62.7,8.7,62.7,8.8z"/>
	<path fill="#E7E7E7" d="M45.9,23.9c0.6-0.4,1.2-0.5,1.8-0.5c4.5,0,9,0,13.4,0c0.3,0,0.6,0,0.9,0.1c0.2,0,0.5,0.2,0.8,0.3c-0.2,0.1-0.3,0.2-0.4,0.3
		c-2.6,1.6-5.2,3.3-7.8,4.9c-0.2,0.1-0.4,0.2-0.7,0.1c-2.6-1.7-5.2-3.3-7.8-4.9C46.1,24,46,23.9,45.9,23.9z"/>
	<path fill="#E7E7E7" d="M46.1,36.3c1.1-0.7,2.1-1.3,3.2-2c1.6-1,3.1-2,4.7-2.9c0.2-0.1,0.4-0.1,0.6-0.1c2.7,1.7,5.4,3.4,8,5.1c0,0,0,0.1,0.2,0.2
		c-0.5,0.1-0.9,0.2-1.3,0.2c-4.6,0-9.3,0-13.9,0c-0.5,0-1-0.2-1.5-0.3C46.1,36.4,46.1,36.3,46.1,36.3z"/>
	<path fill="#E7E7E7" d="M62.6,21.5c-0.4,0.1-0.8,0.2-1.3,0.2c-4.6,0-9.2,0-13.8,0c-0.5,0-1.1-0.1-1.6-0.5c1.1-0.7,2.1-1.3,3.1-2c1.6-1,3.2-2,4.8-3
		c0.2-0.1,0.5-0.1,0.6-0.1c2.7,1.7,5.3,3.3,8,5c0,0,0.1,0.1,0.1,0.1C62.6,21.4,62.6,21.5,62.6,21.5z"/>
	<path fill="#E7E7E7" d="M55.8,30.1c2.8-1.8,5.4-3.4,8.2-5.2c0.1,0.5,0.2,0.8,0.2,1.2c0,2.6,0,5.2,0,7.8c0,0.4-0.2,0.8-0.3,1.4
		C61.2,33.6,58.6,31.9,55.8,30.1z"/>
	<path fill="#E7E7E7" d="M64,9.9c0.1,0.5,0.2,0.9,0.2,1.3c0,2.5,0,5,0,7.6c0,0.5-0.1,0.9-0.2,1.5c-2.8-1.8-5.5-3.4-8.2-5.2
		C58.5,13.4,61.2,11.7,64,9.9z"/>
	<path fill="#E7E7E7" d="M44.8,10.1c2.7,1.7,5.3,3.3,7.9,5c-2.6,1.7-5.2,3.3-7.9,5c-0.1-0.5-0.2-0.9-0.2-1.3c0-2.5,0-5,0-7.5
		C44.7,10.9,44.7,10.6,44.8,10.1z"/>
	<path fill="#E7E7E7" d="M52.7,30.1c-2.7,1.7-5.2,3.3-7.9,5c-0.1-0.5-0.2-1-0.2-1.4c0-2.4,0-4.9,0-7.3c0-0.4,0.1-0.8,0.1-1.3
		C47.5,26.8,50.1,28.4,52.7,30.1z"/>
	<path fill="none" d="M13.3,16.9c0-3,0-5.9,0-8.9c0-0.9,0.2-1.2,1.1-1.2c2.1,0,4.3,0,6.4,0c0.6,0,1,0.2,1.2,0.8c3,6,6,12,9,18
		c0.4,0.9,0.1,1.4-0.8,1.4c-5.3,0-10.7,0-16,0c-0.8,0-1-0.2-1-1.1C13.3,22.9,13.3,19.9,13.3,16.9z"/>
	<path fill="none" d="M8.4,38.8c1.6,0,2.9,1.3,2.8,3c0,1.6-1.3,2.9-2.9,2.9c-1.6,0-2.9-1.3-2.9-2.9C5.5,40.1,6.8,38.8,8.4,38.8z"
		/>
	<path fill="none" d="M33.8,41.7c0-1.6,1.3-2.9,2.9-2.9c1.6,0,2.8,1.3,2.9,2.9c0,1.6-1.3,2.9-2.9,3
		C35.1,44.6,33.8,43.3,33.8,41.7z"/>
</g>
<rect id="_x3C_Slice_x3E_" x="0" y="0" fill="none" width="66" height="49"/>
</svg>
