<?xml version="1.0" encoding="utf-8"?>
<!-- Generator: Adobe Illustrator 17.1.0, SVG Export Plug-In . SVG Version: 6.00 Build 0)  -->
<!DOCTYPE svg PUBLIC "-//W3C//DTD SVG 1.1//EN" "http://www.w3.org/Graphics/SVG/1.1/DTD/svg11.dtd">
<svg version="1.1" id="Layer_1" xmlns="http://www.w3.org/2000/svg" xmlns:xlink="http://www.w3.org/1999/xlink" wirth="56" height="56" x="0px" y="0px"
	 viewBox="0 0 54 54" enable-background="new 0 0 54 54" xml:space="preserve">
<g>
	<path fill="none" d="M84.7,57.8c-38.5,0-77,0-115.4,0c0-21,0-42.1,0-63.1c38.5,0,77,0,115.4,0C84.7,15.7,84.7,36.8,84.7,57.8z
		 M41.6,49.8c-0.3-1.5-0.5-2.8-0.9-4.2c-0.4-1.4,0.1-2.3,1.1-3.2c1-0.9,1.9-2,2.6-3.2c1-1.9,2.5-2.7,4.5-2.6c0.9,0,1.9,0,2.8,0
		c0-3.7,0-7.2,0-10.8c-0.7,0-1.3,0-2,0c-1.8,0-3.1-0.6-3.9-2.3c-0.5-1.1-1.1-2.1-1.8-3c-0.8-1.2-1.8-2.3-3.4-3
		c-0.6,1.4-1.1,2.6-1.8,4.2c-0.2-2.7-0.4-5.3,0.1-7.7c0.5-2.4,1.2-4.8,1.9-7.4c-3.9,1.3-6.9,3.5-8.5,6.9c-1.9-0.1-3.5-0.3-5.2-0.4
		c-1.9-0.1-3.7,0-5.6,0c-7.2-0.1-14.4,4.8-16.4,12.7c-0.1,0.4-0.5,1.1-0.6,1C4,26.6,3.4,26.4,3,26c-0.5-0.5-0.5-1.7,0-2.2
		c0.2-0.3,0.6-0.6,0.9-0.6c0.5,0,1,0.2,1.4,0.2c-0.2-1.2-0.8-1.8-1.9-1.8c-1.3,0-2.4,0.8-2.9,2.2c-1,3.1,0.6,5.7,3.9,6.5
		c0,0.1,0.1,0.2,0.1,0.3C4.9,35.2,6.9,39,10.4,42c1,0.9,1.3,2.1,1,3.4c-0.3,1.4-0.6,2.9-0.9,4.4c3.2,0.6,6.3,1.3,9.4,1.9
		c0.2-0.8,0.4-1.5,0.5-2.2c0.4-2.1,0.8-2.3,3-2.3c1.9,0.1,3.8,0,5.7-0.1c1.7-0.1,2.1,0.2,2.5,1.9c0.2,0.8,0.4,1.7,0.6,2.6
		C35.4,51.1,38.4,50.5,41.6,49.8z M22.8,11c2,0,4,0,5.9,0c0.7,0,1.2-0.2,1.3-0.9c0.1-0.9,0.4-1.7,0.3-2.6c-0.1-3.2-1.6-5.5-4.5-6.7
		C23-0.5,20.1,0,17.7,2.2c-2.4,2.2-2.9,4.9-2,8c0.2,0.6,0.5,0.8,1.2,0.8C18.9,11,20.8,11,22.8,11z"/>
	<path fill="#E7E7E7" d="M41.6,49.8c-3.2,0.7-6.3,1.3-9.4,1.9c-0.2-0.9-0.4-1.8-0.6-2.6c-0.3-1.7-0.8-2-2.5-1.9c-1.9,0.1-3.8,0.1-5.7,0.1
		c-2.2-0.1-2.6,0.2-3,2.3c-0.1,0.7-0.3,1.3-0.5,2.2c-3.1-0.6-6.2-1.3-9.4-1.9c0.3-1.6,0.6-3,0.9-4.4c0.3-1.4,0-2.5-1-3.4
		c-3.5-3-5.5-6.7-5.8-11.3c0-0.1-0.1-0.2-0.1-0.3c-3.4-0.8-4.9-3.4-3.9-6.5c0.4-1.3,1.6-2.2,2.9-2.2c1.2,0,1.8,0.6,1.9,1.8
		c-0.5-0.1-1-0.3-1.4-0.2c-0.3,0-0.7,0.3-0.9,0.6c-0.5,0.6-0.5,1.7,0,2.2c0.4,0.4,1,0.6,1.6,0.7c0.1,0,0.5-0.6,0.6-1
		c2-7.8,9.2-12.8,16.4-12.7c1.9,0,3.7,0,5.6,0c1.7,0.1,3.4,0.3,5.2,0.4c1.7-3.4,4.6-5.6,8.5-6.9c-0.7,2.6-1.3,5-1.9,7.4
		c-0.5,2.5-0.3,5-0.1,7.7c0.7-1.5,1.2-2.8,1.8-4.2c1.5,0.7,2.5,1.8,3.4,3c0.7,1,1.3,2,1.8,3c0.8,1.8,2.1,2.4,3.9,2.3
		c0.6,0,1.3,0,2,0c0,3.6,0,7.1,0,10.8c-1,0-1.9,0-2.8,0c-2.1-0.1-3.5,0.7-4.5,2.6c-0.6,1.2-1.6,2.2-2.6,3.2c-1,0.9-1.4,1.9-1.1,3.2
		C41.1,47,41.3,48.3,41.6,49.8z M40.1,26.1c-1.8,0-3.1,1.3-3.2,3c-0.1,1.7,1.3,3.1,3,3.1c1.8,0,3.1-1.2,3.2-3
		C43.2,27.5,41.8,26.1,40.1,26.1z"/>
	<path fill="#E7E7E7" d="M22.8,11c-2,0-4,0-5.9,0c-0.6,0-1-0.2-1.2-0.8c-0.9-3.1-0.4-5.8,2-8C20.1,0,23-0.5,25.9,0.8c2.9,1.2,4.4,3.5,4.5,6.7
		c0,0.9-0.2,1.7-0.3,2.6c-0.1,0.7-0.5,1-1.3,0.9C26.8,10.9,24.8,11,22.8,11z"/>
	<path fill="none" d="M40.1,26.1c1.7,0,3.1,1.4,3,3.1c0,1.7-1.4,3-3.2,3c-1.7,0-3.1-1.4-3-3.1C36.9,27.3,38.3,26.1,40.1,26.1z"/>
</g>
</svg>
