<?xml version="1.0" encoding="utf-8"?>
<!-- Generator: Adobe Illustrator 17.1.0, SVG Export Plug-In . SVG Version: 6.00 Build 0)  -->
<!DOCTYPE svg PUBLIC "-//W3C//DTD SVG 1.1//EN" "http://www.w3.org/Graphics/SVG/1.1/DTD/svg11.dtd">
<svg version="1.1" xmlns="http://www.w3.org/2000/svg" xmlns:xlink="http://www.w3.org/1999/xlink" width="54" height="50" x="0px" y="0px"
	 viewBox="0 0 50 49" enable-background="new 0 0 50 49" xml:space="preserve">
<g id="Layer_2">
	<g>
		<g id="row_72_">
			<g>
				<rect id="col_151_" x="1086" y="-499.3" fill="#ECF0F1" width="67.2" height="34.8"/>
				<rect id="padding_236_" x="1153.2" y="-499.3" fill="#16A085" width="15" height="35"/>
				<rect id="padding_237_" x="1071" y="-499.3" fill="#16A085" width="15" height="35"/>
			</g>
			<g>
				<rect id="col_150_" x="1183.2" y="-499.2" fill="#ECF0F1" width="68" height="34.8"/>
				<rect id="padding_238_" x="1251.2" y="-499.3" fill="#16A085" width="15" height="35"/>
				<rect id="padding_239_" x="1168.2" y="-499.3" fill="#16A085" width="15" height="35"/>
			</g>
			<g>
				<rect id="col_149_" x="1281.1" y="-499.3" fill="#ECF0F1" width="67.1" height="35"/>
				<rect id="padding_240_" x="1348.2" y="-499.3" fill="#16A085" width="15" height="35"/>
				<rect id="padding_241_" x="1266.2" y="-499.3" fill="#16A085" width="15" height="35"/>
			</g>
			<g>
				<rect id="col_148_" x="1378.2" y="-499.3" fill="#ECF0F1" width="67.9" height="35"/>
				<rect id="padding_242_" x="1446.2" y="-499.3" fill="#16A085" width="15" height="35"/>
				<rect id="padding_243_" x="1363.2" y="-499.3" fill="#16A085" width="15" height="35"/>
			</g>
			<g>
				<rect id="col_147_" x="1476" y="-499.3" fill="#ECF0F1" width="67.2" height="35"/>
				<rect id="padding_244_" x="1543.2" y="-499.3" fill="#16A085" width="15" height="35"/>
				<rect id="padding_245_" x="1461" y="-499.3" fill="#16A085" width="15" height="35"/>
			</g>
			<g>
				<rect id="col_146_" x="1573.1" y="-499.3" fill="#ECF0F1" width="68.1" height="35"/>
				<rect id="padding_246_" x="1641.2" y="-499.3" fill="#16A085" width="15" height="35"/>
				<rect id="padding_247_" x="1558.2" y="-499.3" fill="#16A085" width="15" height="35"/>
			</g>
			<g>
				<rect id="col_145_" x="1671.3" y="-499.3" fill="#ECF0F1" width="66.8" height="35"/>
				<rect id="padding_248_" x="1738.2" y="-499.3" fill="#16A085" width="15" height="35"/>
				<rect id="padding_249_" x="1656.3" y="-499.3" fill="#16A085" width="15" height="35"/>
			</g>
			<g>
				<rect id="col_144_" x="1768.2" y="-499.2" fill="#ECF0F1" width="67.8" height="34.8"/>
				<rect id="padding_250_" x="1836" y="-499.3" fill="#16A085" width="15" height="35"/>
				<rect id="padding_251_" x="1753.2" y="-499.3" fill="#16A085" width="15" height="35"/>
			</g>
			<g>
				<rect id="col_143_" x="1866" y="-499.3" fill="#ECF0F1" width="67.2" height="35"/>
				<rect id="padding_252_" x="1933.1" y="-499.3" fill="#16A085" width="15" height="35"/>
				<rect id="padding_253_" x="1851" y="-499.3" fill="#16A085" width="15" height="35"/>
			</g>
			<g>
				<rect id="col_142_" x="1963.1" y="-499.3" fill="#ECF0F1" width="67.9" height="35"/>
				<rect id="padding_254_" x="2031" y="-499.3" fill="#16A085" width="15" height="35"/>
				<rect id="padding_255_" x="1948.1" y="-499.3" fill="#16A085" width="15" height="35"/>
			</g>
			<g>
				<rect id="col_141_" x="2060.9" y="-499.3" fill="#ECF0F1" width="67.1" height="35"/>
				<rect id="padding_256_" x="2128" y="-499.3" fill="#16A085" width="15" height="35"/>
				<rect id="padding_257_" x="2046" y="-499.3" fill="#16A085" width="15" height="35"/>
			</g>
			<g>
				<rect id="col_140_" x="2158" y="-499.3" fill="#ECF0F1" width="68.1" height="35"/>
				<rect id="padding_258_" x="2226" y="-499.3" fill="#16A085" width="15" height="35"/>
				<rect id="padding_259_" x="2143" y="-499.3" fill="#16A085" width="15" height="35"/>
			</g>
		</g>
		<g id="row_73_">
			<g>
				<rect id="col_139_" x="1086" y="-418.6" fill="#ECF0F1" width="165" height="35"/>
				<rect id="padding_260_" x="1251" y="-418.6" fill="#16A085" width="15" height="35"/>
				<rect id="padding_261_" x="1071" y="-418.6" fill="#16A085" width="15" height="35"/>
			</g>
			<g>
				<rect id="col_138_" x="1281" y="-418.6" fill="#ECF0F1" width="165" height="35"/>
				<rect id="padding_262_" x="1446" y="-418.6" fill="#16A085" width="15" height="35"/>
				<rect id="padding_263_" x="1266" y="-418.6" fill="#16A085" width="15" height="35"/>
			</g>
			<g>
				<rect id="col_137_" x="1476" y="-418.6" fill="#ECF0F1" width="165.2" height="35"/>
				<rect id="padding_264_" x="1641.2" y="-418.6" fill="#16A085" width="15" height="35"/>
				<rect id="padding_265_" x="1461" y="-418.6" fill="#16A085" width="15" height="35"/>
			</g>
			<g>
				<rect id="col_136_" x="1670.5" y="-418.6" fill="#ECF0F1" width="165" height="35"/>
				<rect id="padding_266_" x="1835.5" y="-418.6" fill="#16A085" width="15" height="35"/>
				<rect id="padding_267_" x="1655.5" y="-418.6" fill="#16A085" width="15" height="35"/>
			</g>
			<g>
				<rect id="col_135_" x="1865.5" y="-418.6" fill="#ECF0F1" width="165" height="35"/>
				<rect id="padding_268_" x="2030.5" y="-418.6" fill="#16A085" width="15" height="35"/>
				<rect id="padding_269_" x="1850.5" y="-418.6" fill="#16A085" width="15" height="35"/>
			</g>
			<g>
				<rect id="col_134_" x="2060.5" y="-418.6" fill="#ECF0F1" width="165.4" height="35"/>
				<rect id="padding_270_" x="2226" y="-418.6" fill="#16A085" width="15" height="35"/>
				<rect id="padding_271_" x="2045.5" y="-418.6" fill="#16A085" width="15" height="35"/>
			</g>
		</g>
		<g id="row_74_">
			<g>
				<rect id="col_133_" x="1086" y="-338.3" fill="#ECF0F1" width="262.3" height="35"/>
				<rect id="padding_272_" x="1348.3" y="-338.3" fill="#16A085" width="15" height="35"/>
				<rect id="padding_273_" x="1071" y="-338.3" fill="#16A085" width="15" height="35"/>
			</g>
			<g>
				<rect id="col_132_" x="1378.2" y="-338.3" fill="#ECF0F1" width="263" height="35"/>
				<rect id="padding_274_" x="1641.2" y="-338.3" fill="#16A085" width="15" height="35"/>
				<rect id="padding_275_" x="1363.2" y="-338.3" fill="#16A085" width="15" height="35"/>
			</g>
			<g>
				<rect id="col_131_" x="1671.2" y="-338.3" fill="#ECF0F1" width="262.3" height="35"/>
				<rect id="padding_276_" x="1933.5" y="-338.3" fill="#16A085" width="15" height="35"/>
				<rect id="padding_277_" x="1656.2" y="-338.3" fill="#16A085" width="15" height="35"/>
			</g>
			<g>
				<rect id="col_130_" x="1963.4" y="-338.3" fill="#ECF0F1" width="262.6" height="35"/>
				<rect id="padding_278_" x="2226" y="-338.3" fill="#16A085" width="15" height="35"/>
				<rect id="padding_279_" x="1948.4" y="-338.3" fill="#16A085" width="15" height="35"/>
			</g>
		</g>
		<g id="row_75_">
			<g>
				<rect id="col_129_" x="1086" y="-257.3" fill="#ECF0F1" width="360" height="35"/>
				<rect id="padding_280_" x="1446" y="-257.3" fill="#16A085" width="15" height="35"/>
				<rect id="padding_281_" x="1071" y="-257.3" fill="#16A085" width="15" height="35"/>
			</g>
			<g>
				<rect id="col_128_" x="1475.9" y="-257.3" fill="#ECF0F1" width="360" height="35"/>
				<rect id="padding_282_" x="1835.9" y="-257.3" fill="#16A085" width="15" height="35"/>
				<rect id="padding_283_" x="1460.9" y="-257.3" fill="#16A085" width="15" height="35"/>
			</g>
			<g>
				<rect id="col_127_" x="1866" y="-257.3" fill="#ECF0F1" width="360" height="35"/>
				<rect id="padding_284_" x="2226" y="-257.3" fill="#16A085" width="15" height="35"/>
				<rect id="padding_285_" x="1851" y="-257.3" fill="#16A085" width="15" height="35"/>
			</g>
		</g>
		<g id="col-span-1_28_">
			<path fill="#7F8C8D" d="M2151.8-510.3c-0.5,0-0.9-0.4-0.9-0.9c0-0.6,0.4-1,0.9-1c0.6,0,1,0.4,1,1
				C2152.8-510.7,2152.4-510.3,2151.8-510.3z"/>
			<path fill="#7F8C8D" d="M2163.4-511.9c-0.3,0.4-1.3,1.6-3.8,1.6c-2.5,0-4.5-2-4.5-4.8c0-2.9,2.2-4.8,4.6-4.8
				c2.5,0,3.5,1.3,3.7,1.6l-0.7,0.7c-0.4-0.5-1.2-1.4-3-1.4c-1.9,0-3.5,1.5-3.5,3.8c0,2.3,1.4,4,3.5,4c2.1,0,3.1-1.4,3.1-1.4
				L2163.4-511.9z"/>
			<path fill="#7F8C8D" d="M2169.2-510.3c-2.6,0-4.7-2-4.7-4.8c0-2.8,2.1-4.8,4.7-4.8c2.7,0,4.8,2,4.8,4.8
				C2174-512.3,2171.9-510.3,2169.2-510.3z M2169.2-519c-2.2,0-3.6,1.7-3.6,3.9c0,2.1,1.4,3.9,3.6,3.9c2.3,0,3.7-1.8,3.7-3.9
				C2172.9-517.3,2171.5-519,2169.2-519z"/>
			<path fill="#7F8C8D" d="M2177.4-510.5h-1v-13.8h1V-510.5z"/>
			<path fill="#7F8C8D" d="M2183.8-515.5h-4.4v-1h4.4V-515.5z"/>
			<path fill="#7F8C8D" d="M2188.1-510.3c-1.7,0-2.8-0.8-3.4-1.8l0.7-0.6c0.6,0.9,1.5,1.5,2.7,1.5s2.2-0.6,2.2-1.8s-1.7-1.6-2.5-1.9
				c-0.8-0.3-2.5-0.9-2.5-2.6c0-1.7,1.5-2.5,2.8-2.5c1.4,0,2.2,0.5,2.9,1.3l-0.6,0.6c-0.6-0.7-1.3-1.1-2.3-1.1c-1,0-1.8,0.5-1.8,1.5
				c0,1,1,1.4,2.1,1.8c1.2,0.4,2.9,1,2.9,2.8C2191.4-511.3,2189.8-510.3,2188.1-510.3z"/>
			<path fill="#7F8C8D" d="M2198.2-510.3c-1.3,0-2.6-0.5-3.5-1.9v5.5h-1v-13.1h1v1.8c0.8-1.3,2.1-2,3.5-2c2.9,0,4.6,2.1,4.6,4.8
				C2202.7-512.3,2200.9-510.3,2198.2-510.3z M2198.1-519c-2.3,0-3.5,1.8-3.5,3.9c0,2.1,1.2,3.9,3.5,3.9c2.2,0,3.5-1.7,3.5-3.9
				C2201.6-517.2,2200.4-519,2198.1-519z"/>
			<path fill="#7F8C8D" d="M2211.4-510.5h-1.1v-1.3c-0.3,0.4-1.3,1.5-3.1,1.5s-3.1-1.2-3.1-2.8c0-1.6,1.2-2.7,3.7-2.8l2.5-0.1v-0.5
				c0-1.7-1.1-2.5-2.6-2.5c-1.4,0-2.5,0.6-2.7,0.8l-0.4-0.8c0.6-0.4,1.7-0.9,3.1-0.9s2.2,0.4,2.8,1c0.5,0.6,0.9,1.3,0.9,2.9V-510.5z
				 M2210.4-515.2l-2.6,0.2c-1.9,0.1-2.6,0.9-2.6,1.9s0.8,1.9,2.3,1.9s2.5-1,2.9-1.7V-515.2z"/>
			<path fill="#7F8C8D" d="M2221.6-510.5h-1.1v-5.5c0-1.5-0.3-3-2.3-3c-2,0-3,1.7-3,3.9v4.6h-1v-9.3h1v1.7c0.5-1.1,1.7-1.9,3-1.9
				c2.7,0,3.3,1.7,3.3,3.9V-510.5z"/>
			<path fill="#7F8C8D" d="M2227.8-515.5h-4.4v-1h4.4V-515.5z"/>
			<path fill="#7F8C8D" d="M2232.7-510.5h-1.1v-12.9h-2.8v-0.9h3.9V-510.5z"/>
		</g>
		<g id="col-span-1_29_">
			<path fill="#7F8C8D" d="M2055.4-510.2c-0.5,0-0.9-0.4-0.9-0.9c0-0.6,0.4-1,0.9-1c0.6,0,1,0.4,1,1
				C2056.4-510.6,2056-510.2,2055.4-510.2z"/>
			<path fill="#7F8C8D" d="M2067-511.8c-0.3,0.4-1.3,1.6-3.8,1.6c-2.5,0-4.5-2-4.5-4.8c0-2.9,2.2-4.8,4.6-4.8c2.5,0,3.5,1.3,3.7,1.6
				l-0.7,0.7c-0.4-0.5-1.2-1.4-3-1.4c-1.9,0-3.5,1.5-3.5,3.8c0,2.3,1.4,4,3.5,4c2.1,0,3.1-1.4,3.1-1.4L2067-511.8z"/>
			<path fill="#7F8C8D" d="M2072.8-510.2c-2.6,0-4.7-2-4.7-4.8c0-2.8,2.1-4.8,4.7-4.8c2.7,0,4.8,2,4.8,4.8
				C2077.6-512.2,2075.5-510.2,2072.8-510.2z M2072.8-518.9c-2.2,0-3.6,1.7-3.6,3.9c0,2.1,1.4,3.9,3.6,3.9c2.3,0,3.7-1.8,3.7-3.9
				C2076.5-517.2,2075.1-518.9,2072.8-518.9z"/>
			<path fill="#7F8C8D" d="M2081-510.4h-1v-13.8h1V-510.4z"/>
			<path fill="#7F8C8D" d="M2087.4-515.5h-4.4v-1h4.4V-515.5z"/>
			<path fill="#7F8C8D" d="M2091.7-510.2c-1.7,0-2.8-0.8-3.4-1.8l0.7-0.6c0.6,0.9,1.5,1.5,2.7,1.5s2.2-0.6,2.2-1.8
				c0-1.2-1.7-1.6-2.5-1.9c-0.8-0.3-2.5-0.9-2.5-2.6c0-1.7,1.5-2.5,2.8-2.5c1.4,0,2.2,0.5,2.9,1.3l-0.6,0.6
				c-0.6-0.7-1.3-1.1-2.3-1.1c-1,0-1.8,0.5-1.8,1.5c0,1,1,1.4,2.1,1.8c1.2,0.4,2.9,1,2.9,2.8C2095-511.2,2093.4-510.2,2091.7-510.2z
				"/>
			<path fill="#7F8C8D" d="M2101.8-510.2c-1.3,0-2.6-0.5-3.5-1.9v5.5h-1v-13.1h1v1.8c0.8-1.3,2.1-2,3.5-2c2.9,0,4.6,2.1,4.6,4.8
				C2106.3-512.2,2104.5-510.2,2101.8-510.2z M2101.7-518.9c-2.3,0-3.5,1.8-3.5,3.9c0,2.1,1.2,3.9,3.5,3.9c2.2,0,3.5-1.7,3.5-3.9
				C2105.2-517.1,2104-518.9,2101.7-518.9z"/>
			<path fill="#7F8C8D" d="M2115-510.4h-1.1v-1.3c-0.3,0.4-1.3,1.5-3.1,1.5c-1.8,0-3.1-1.2-3.1-2.8c0-1.6,1.2-2.7,3.7-2.8l2.5-0.1
				v-0.5c0-1.7-1.1-2.5-2.6-2.5c-1.4,0-2.5,0.6-2.7,0.8l-0.4-0.8c0.6-0.4,1.7-0.9,3.1-0.9c1.4,0,2.2,0.4,2.8,1
				c0.5,0.6,0.9,1.3,0.9,2.9V-510.4z M2114-515.1l-2.6,0.2c-1.9,0.1-2.6,0.9-2.6,1.9s0.8,1.9,2.3,1.9c1.5,0,2.5-1,2.9-1.7V-515.1z"
				/>
			<path fill="#7F8C8D" d="M2125.2-510.4h-1.1v-5.5c0-1.5-0.3-3-2.3-3s-3,1.7-3,3.9v4.6h-1v-9.3h1v1.7c0.5-1.1,1.7-1.9,3-1.9
				c2.7,0,3.3,1.7,3.3,3.9V-510.4z"/>
			<path fill="#7F8C8D" d="M2131.4-515.5h-4.4v-1h4.4V-515.5z"/>
			<path fill="#7F8C8D" d="M2136.3-510.4h-1.1v-12.9h-2.8v-0.9h3.9V-510.4z"/>
		</g>
		<g id="col-span-1_30_">
			<path fill="#7F8C8D" d="M1956.7-510.7c-0.5,0-0.9-0.4-0.9-0.9c0-0.6,0.4-1,0.9-1c0.6,0,1,0.4,1,1
				C1957.6-511.1,1957.2-510.7,1956.7-510.7z"/>
			<path fill="#7F8C8D" d="M1968.3-512.3c-0.3,0.4-1.3,1.6-3.8,1.6c-2.5,0-4.5-2-4.5-4.8c0-2.9,2.2-4.8,4.6-4.8
				c2.5,0,3.5,1.3,3.7,1.6l-0.7,0.7c-0.4-0.5-1.2-1.4-3-1.4c-1.9,0-3.5,1.5-3.5,3.8c0,2.3,1.4,4,3.5,4c2.1,0,3.1-1.4,3.1-1.4
				L1968.3-512.3z"/>
			<path fill="#7F8C8D" d="M1974.1-510.7c-2.6,0-4.7-2-4.7-4.8c0-2.8,2.1-4.8,4.7-4.8c2.7,0,4.8,2,4.8,4.8
				C1978.8-512.7,1976.7-510.7,1974.1-510.7z M1974.1-519.4c-2.2,0-3.6,1.7-3.6,3.9c0,2.1,1.4,3.9,3.6,3.9c2.3,0,3.7-1.8,3.7-3.9
				C1977.7-517.7,1976.3-519.4,1974.1-519.4z"/>
			<path fill="#7F8C8D" d="M1982.3-510.9h-1v-13.8h1V-510.9z"/>
			<path fill="#7F8C8D" d="M1988.7-515.9h-4.4v-1h4.4V-515.9z"/>
			<path fill="#7F8C8D" d="M1993-510.7c-1.7,0-2.8-0.8-3.4-1.8l0.7-0.6c0.6,0.9,1.5,1.5,2.7,1.5s2.2-0.6,2.2-1.8
				c0-1.2-1.7-1.6-2.5-1.9c-0.8-0.3-2.5-0.9-2.5-2.6c0-1.7,1.5-2.5,2.8-2.5c1.4,0,2.2,0.5,2.9,1.3l-0.6,0.6
				c-0.6-0.7-1.3-1.1-2.3-1.1c-1,0-1.8,0.5-1.8,1.5s1,1.4,2.1,1.8c1.2,0.4,2.9,1,2.9,2.8C1996.2-511.7,1994.7-510.7,1993-510.7z"/>
			<path fill="#7F8C8D" d="M2003-510.7c-1.3,0-2.6-0.5-3.5-1.9v5.5h-1v-13.1h1v1.8c0.8-1.3,2.1-2,3.5-2c2.9,0,4.6,2.1,4.6,4.8
				C2007.6-512.7,2005.8-510.7,2003-510.7z M2003-519.4c-2.3,0-3.5,1.8-3.5,3.9c0,2.1,1.2,3.9,3.5,3.9c2.2,0,3.5-1.7,3.5-3.9
				C2006.5-517.6,2005.2-519.4,2003-519.4z"/>
			<path fill="#7F8C8D" d="M2016.3-510.9h-1.1v-1.3c-0.3,0.4-1.3,1.5-3.1,1.5s-3.1-1.2-3.1-2.8c0-1.6,1.2-2.7,3.7-2.8l2.5-0.1v-0.5
				c0-1.7-1.1-2.5-2.6-2.5c-1.4,0-2.5,0.6-2.7,0.8l-0.4-0.8c0.6-0.4,1.7-0.9,3.1-0.9s2.2,0.4,2.8,1c0.5,0.6,0.9,1.3,0.9,2.9V-510.9z
				 M2015.2-515.6l-2.6,0.2c-1.9,0.1-2.6,0.9-2.6,1.9s0.8,1.9,2.3,1.9c1.5,0,2.5-1,2.9-1.7V-515.6z"/>
			<path fill="#7F8C8D" d="M2026.4-510.9h-1.1v-5.5c0-1.5-0.3-3-2.3-3s-3,1.7-3,3.9v4.6h-1v-9.3h1v1.7c0.5-1.1,1.7-1.9,3-1.9
				c2.7,0,3.3,1.7,3.3,3.9V-510.9z"/>
			<path fill="#7F8C8D" d="M2032.6-515.9h-4.4v-1h4.4V-515.9z"/>
			<path fill="#7F8C8D" d="M2037.5-510.9h-1.1v-12.9h-2.8v-0.9h3.9V-510.9z"/>
		</g>
		<g id="col-span-1_31_">
			<path fill="#7F8C8D" d="M1860.3-510.6c-0.5,0-0.9-0.4-0.9-0.9c0-0.6,0.4-1,0.9-1c0.6,0,1,0.4,1,1
				C1861.2-511,1860.8-510.6,1860.3-510.6z"/>
			<path fill="#7F8C8D" d="M1871.9-512.2c-0.3,0.4-1.3,1.6-3.8,1.6c-2.5,0-4.5-2-4.5-4.8c0-2.9,2.2-4.8,4.6-4.8
				c2.5,0,3.5,1.3,3.7,1.6l-0.7,0.7c-0.4-0.5-1.2-1.4-3-1.4c-1.9,0-3.5,1.5-3.5,3.8c0,2.3,1.4,4,3.5,4c2.1,0,3.1-1.4,3.1-1.4
				L1871.9-512.2z"/>
			<path fill="#7F8C8D" d="M1877.7-510.6c-2.6,0-4.7-2-4.7-4.8c0-2.8,2.1-4.8,4.7-4.8c2.7,0,4.8,2,4.8,4.8
				C1882.4-512.6,1880.3-510.6,1877.7-510.6z M1877.7-519.4c-2.2,0-3.6,1.7-3.6,3.9c0,2.1,1.4,3.9,3.6,3.9c2.3,0,3.7-1.8,3.7-3.9
				C1881.3-517.6,1879.9-519.4,1877.7-519.4z"/>
			<path fill="#7F8C8D" d="M1885.9-510.8h-1v-13.8h1V-510.8z"/>
			<path fill="#7F8C8D" d="M1892.3-515.9h-4.4v-1h4.4V-515.9z"/>
			<path fill="#7F8C8D" d="M1896.6-510.6c-1.7,0-2.8-0.8-3.4-1.8l0.7-0.6c0.6,0.9,1.5,1.5,2.7,1.5c1.2,0,2.2-0.6,2.2-1.8
				s-1.7-1.6-2.5-1.9c-0.8-0.3-2.5-0.9-2.5-2.6c0-1.7,1.5-2.5,2.8-2.5c1.4,0,2.2,0.5,2.9,1.3l-0.6,0.6c-0.6-0.7-1.3-1.1-2.3-1.1
				c-1,0-1.8,0.5-1.8,1.5c0,1,1,1.4,2.1,1.8c1.2,0.4,2.9,1,2.9,2.8C1899.8-511.6,1898.3-510.6,1896.6-510.6z"/>
			<path fill="#7F8C8D" d="M1906.6-510.6c-1.3,0-2.6-0.5-3.5-1.9v5.5h-1v-13.1h1v1.8c0.8-1.3,2.1-2,3.5-2c2.9,0,4.6,2.1,4.6,4.8
				C1911.2-512.7,1909.4-510.6,1906.6-510.6z M1906.6-519.4c-2.3,0-3.5,1.8-3.5,3.9c0,2.1,1.2,3.9,3.5,3.9c2.2,0,3.5-1.7,3.5-3.9
				C1910.1-517.6,1908.8-519.4,1906.6-519.4z"/>
			<path fill="#7F8C8D" d="M1919.9-510.8h-1.1v-1.3c-0.3,0.4-1.3,1.5-3.1,1.5c-1.8,0-3.1-1.2-3.1-2.8s1.2-2.7,3.7-2.8l2.5-0.1v-0.5
				c0-1.7-1.1-2.5-2.6-2.5c-1.4,0-2.5,0.6-2.7,0.8l-0.4-0.8c0.6-0.4,1.7-0.9,3.1-0.9c1.4,0,2.2,0.4,2.8,1c0.5,0.6,0.9,1.3,0.9,2.9
				V-510.8z M1918.8-515.5l-2.6,0.2c-1.9,0.1-2.6,0.9-2.6,1.9s0.8,1.9,2.3,1.9s2.5-1,2.9-1.7V-515.5z"/>
			<path fill="#7F8C8D" d="M1930-510.8h-1.1v-5.5c0-1.5-0.3-3-2.3-3c-2,0-3,1.7-3,3.9v4.6h-1v-9.3h1v1.7c0.5-1.1,1.7-1.9,3-1.9
				c2.7,0,3.3,1.7,3.3,3.9V-510.8z"/>
			<path fill="#7F8C8D" d="M1936.2-515.9h-4.4v-1h4.4V-515.9z"/>
			<path fill="#7F8C8D" d="M1941.1-510.8h-1.1v-12.9h-2.8v-0.9h3.9V-510.8z"/>
		</g>
		<g id="col-span-1_32_">
			<path fill="#7F8C8D" d="M1762.5-509.7c-0.5,0-0.9-0.4-0.9-0.9c0-0.6,0.4-1,0.9-1c0.6,0,1,0.4,1,1
				C1763.4-510.1,1763-509.7,1762.5-509.7z"/>
			<path fill="#7F8C8D" d="M1774.1-511.3c-0.3,0.4-1.3,1.6-3.8,1.6c-2.5,0-4.5-2-4.5-4.8c0-2.9,2.2-4.8,4.6-4.8
				c2.5,0,3.5,1.3,3.7,1.6l-0.7,0.7c-0.4-0.5-1.2-1.4-3-1.4c-1.9,0-3.5,1.5-3.5,3.8c0,2.3,1.4,4,3.5,4c2.1,0,3.1-1.4,3.1-1.4
				L1774.1-511.3z"/>
			<path fill="#7F8C8D" d="M1779.9-509.7c-2.6,0-4.7-2-4.7-4.8c0-2.8,2.1-4.8,4.7-4.8c2.7,0,4.8,2,4.8,4.8
				C1784.6-511.7,1782.5-509.7,1779.9-509.7z M1779.9-518.5c-2.2,0-3.6,1.7-3.6,3.9c0,2.1,1.4,3.9,3.6,3.9c2.3,0,3.7-1.8,3.7-3.9
				C1783.5-516.7,1782.1-518.5,1779.9-518.5z"/>
			<path fill="#7F8C8D" d="M1788.1-509.9h-1v-13.8h1V-509.9z"/>
			<path fill="#7F8C8D" d="M1794.5-515h-4.4v-1h4.4V-515z"/>
			<path fill="#7F8C8D" d="M1798.8-509.7c-1.7,0-2.8-0.8-3.4-1.8l0.7-0.6c0.6,0.9,1.5,1.5,2.7,1.5c1.2,0,2.2-0.6,2.2-1.8
				c0-1.2-1.7-1.6-2.5-1.9c-0.8-0.3-2.5-0.9-2.5-2.6c0-1.7,1.5-2.5,2.8-2.5c1.4,0,2.2,0.5,2.9,1.3l-0.6,0.6
				c-0.6-0.7-1.3-1.1-2.3-1.1c-1,0-1.8,0.5-1.8,1.5c0,1,1,1.4,2.1,1.8c1.2,0.4,2.9,1,2.9,2.8C1802-510.7,1800.5-509.7,1798.8-509.7z
				"/>
			<path fill="#7F8C8D" d="M1808.8-509.7c-1.3,0-2.6-0.5-3.5-1.9v5.5h-1v-13.1h1v1.8c0.8-1.3,2.1-2,3.5-2c2.9,0,4.6,2.1,4.6,4.8
				C1813.4-511.8,1811.6-509.7,1808.8-509.7z M1808.8-518.5c-2.3,0-3.5,1.8-3.5,3.9c0,2.1,1.2,3.9,3.5,3.9c2.2,0,3.5-1.7,3.5-3.9
				C1812.3-516.7,1811-518.5,1808.8-518.5z"/>
			<path fill="#7F8C8D" d="M1822.1-509.9h-1.1v-1.3c-0.3,0.4-1.3,1.5-3.1,1.5s-3.1-1.2-3.1-2.8c0-1.6,1.2-2.7,3.7-2.8l2.5-0.1v-0.5
				c0-1.7-1.1-2.5-2.6-2.5c-1.4,0-2.5,0.6-2.7,0.8l-0.4-0.8c0.6-0.4,1.7-0.9,3.1-0.9s2.2,0.4,2.8,1c0.5,0.6,0.9,1.3,0.9,2.9V-509.9z
				 M1821-514.6l-2.6,0.2c-1.9,0.1-2.6,0.9-2.6,1.9c0,1,0.8,1.9,2.3,1.9s2.5-1,2.9-1.7V-514.6z"/>
			<path fill="#7F8C8D" d="M1832.2-509.9h-1.1v-5.5c0-1.5-0.3-3-2.3-3c-2,0-3,1.7-3,3.9v4.6h-1v-9.3h1v1.7c0.5-1.1,1.7-1.9,3-1.9
				c2.7,0,3.3,1.7,3.3,3.9V-509.9z"/>
			<path fill="#7F8C8D" d="M1838.4-515h-4.4v-1h4.4V-515z"/>
			<path fill="#7F8C8D" d="M1843.3-509.9h-1.1v-12.9h-2.8v-0.9h3.9V-509.9z"/>
		</g>
		<g id="col-span-1_33_">
			<path fill="#7F8C8D" d="M1666.1-509.7c-0.5,0-0.9-0.4-0.9-0.9c0-0.6,0.4-1,0.9-1c0.6,0,1,0.4,1,1
				C1667-510.1,1666.6-509.7,1666.1-509.7z"/>
			<path fill="#7F8C8D" d="M1677.7-511.3c-0.3,0.4-1.3,1.6-3.8,1.6c-2.5,0-4.5-2-4.5-4.8c0-2.9,2.2-4.8,4.6-4.8
				c2.5,0,3.5,1.3,3.7,1.6l-0.7,0.7c-0.4-0.5-1.2-1.4-3-1.4c-1.9,0-3.5,1.5-3.5,3.8s1.4,4,3.5,4c2.1,0,3.1-1.4,3.1-1.4L1677.7-511.3
				z"/>
			<path fill="#7F8C8D" d="M1683.5-509.7c-2.6,0-4.7-2-4.7-4.8c0-2.8,2.1-4.8,4.7-4.8c2.7,0,4.8,2,4.8,4.8
				C1688.2-511.7,1686.1-509.7,1683.5-509.7z M1683.5-518.4c-2.2,0-3.6,1.7-3.6,3.9c0,2.1,1.4,3.9,3.6,3.9c2.3,0,3.7-1.8,3.7-3.9
				C1687.1-516.7,1685.7-518.4,1683.5-518.4z"/>
			<path fill="#7F8C8D" d="M1691.7-509.9h-1v-13.8h1V-509.9z"/>
			<path fill="#7F8C8D" d="M1698.1-514.9h-4.4v-1h4.4V-514.9z"/>
			<path fill="#7F8C8D" d="M1702.4-509.7c-1.7,0-2.8-0.8-3.4-1.8l0.7-0.6c0.6,0.9,1.5,1.5,2.7,1.5c1.2,0,2.2-0.6,2.2-1.8
				s-1.7-1.6-2.5-1.9c-0.8-0.3-2.5-0.9-2.5-2.6c0-1.7,1.5-2.5,2.8-2.5c1.4,0,2.2,0.5,2.9,1.3l-0.6,0.6c-0.6-0.7-1.3-1.1-2.3-1.1
				c-1,0-1.8,0.5-1.8,1.5c0,1,1,1.4,2.1,1.8c1.2,0.4,2.9,1,2.9,2.8C1705.6-510.7,1704.1-509.7,1702.4-509.7z"/>
			<path fill="#7F8C8D" d="M1712.4-509.7c-1.3,0-2.6-0.5-3.5-1.9v5.5h-1v-13.1h1v1.8c0.8-1.3,2.1-2,3.5-2c2.9,0,4.6,2.1,4.6,4.8
				C1717-511.7,1715.2-509.7,1712.4-509.7z M1712.4-518.4c-2.3,0-3.5,1.8-3.5,3.9c0,2.1,1.2,3.9,3.5,3.9c2.2,0,3.5-1.7,3.5-3.9
				C1715.9-516.6,1714.6-518.4,1712.4-518.4z"/>
			<path fill="#7F8C8D" d="M1725.7-509.9h-1.1v-1.3c-0.3,0.4-1.3,1.5-3.1,1.5s-3.1-1.2-3.1-2.8c0-1.6,1.2-2.7,3.7-2.8l2.5-0.1v-0.5
				c0-1.7-1.1-2.5-2.6-2.5c-1.4,0-2.5,0.6-2.7,0.8l-0.4-0.8c0.6-0.4,1.7-0.9,3.1-0.9s2.2,0.4,2.8,1c0.5,0.6,0.9,1.3,0.9,2.9V-509.9z
				 M1724.6-514.6l-2.6,0.2c-1.9,0.1-2.6,0.9-2.6,1.9s0.8,1.9,2.3,1.9c1.5,0,2.5-1,2.9-1.7V-514.6z"/>
			<path fill="#7F8C8D" d="M1735.8-509.9h-1.1v-5.5c0-1.5-0.3-3-2.3-3s-3,1.7-3,3.9v4.6h-1v-9.3h1v1.7c0.5-1.1,1.7-1.9,3-1.9
				c2.7,0,3.3,1.7,3.3,3.9V-509.9z"/>
			<path fill="#7F8C8D" d="M1742-514.9h-4.4v-1h4.4V-514.9z"/>
			<path fill="#7F8C8D" d="M1746.9-509.9h-1.1v-12.9h-2.8v-0.9h3.9V-509.9z"/>
		</g>
		<g id="col-span-1_34_">
			<path fill="#7F8C8D" d="M1567.3-510.1c-0.5,0-0.9-0.4-0.9-0.9c0-0.6,0.4-1,0.9-1c0.6,0,1,0.4,1,1
				C1568.3-510.5,1567.9-510.1,1567.3-510.1z"/>
			<path fill="#7F8C8D" d="M1578.9-511.7c-0.3,0.4-1.3,1.6-3.8,1.6c-2.5,0-4.5-2-4.5-4.8c0-2.9,2.2-4.8,4.6-4.8
				c2.5,0,3.5,1.3,3.7,1.6l-0.7,0.7c-0.4-0.5-1.2-1.4-3-1.4c-1.9,0-3.5,1.5-3.5,3.8c0,2.3,1.4,4,3.5,4c2.1,0,3.1-1.4,3.1-1.4
				L1578.9-511.7z"/>
			<path fill="#7F8C8D" d="M1584.7-510.1c-2.6,0-4.7-2-4.7-4.8c0-2.8,2.1-4.8,4.7-4.8c2.7,0,4.8,2,4.8,4.8
				C1589.5-512.1,1587.4-510.1,1584.7-510.1z M1584.7-518.9c-2.2,0-3.6,1.7-3.6,3.9c0,2.1,1.4,3.9,3.6,3.9c2.3,0,3.7-1.8,3.7-3.9
				C1588.4-517.1,1587-518.9,1584.7-518.9z"/>
			<path fill="#7F8C8D" d="M1592.9-510.3h-1v-13.8h1V-510.3z"/>
			<path fill="#7F8C8D" d="M1599.3-515.4h-4.4v-1h4.4V-515.4z"/>
			<path fill="#7F8C8D" d="M1603.6-510.1c-1.7,0-2.8-0.8-3.4-1.8l0.7-0.6c0.6,0.9,1.5,1.5,2.7,1.5c1.2,0,2.2-0.6,2.2-1.8
				c0-1.2-1.7-1.6-2.5-1.9c-0.8-0.3-2.5-0.9-2.5-2.6c0-1.7,1.5-2.5,2.8-2.5c1.4,0,2.2,0.5,2.9,1.3l-0.6,0.6
				c-0.6-0.7-1.3-1.1-2.3-1.1c-1,0-1.8,0.5-1.8,1.5c0,1,1,1.4,2.1,1.8c1.2,0.4,2.9,1,2.9,2.8
				C1606.9-511.1,1605.3-510.1,1603.6-510.1z"/>
			<path fill="#7F8C8D" d="M1613.7-510.1c-1.3,0-2.6-0.5-3.5-1.9v5.5h-1v-13.1h1v1.8c0.8-1.3,2.1-2,3.5-2c2.9,0,4.6,2.1,4.6,4.8
				C1618.3-512.2,1616.4-510.1,1613.7-510.1z M1613.6-518.9c-2.3,0-3.5,1.8-3.5,3.9c0,2.1,1.2,3.9,3.5,3.9c2.2,0,3.5-1.7,3.5-3.9
				C1617.2-517.1,1615.9-518.9,1613.6-518.9z"/>
			<path fill="#7F8C8D" d="M1626.9-510.3h-1.1v-1.3c-0.3,0.4-1.3,1.5-3.1,1.5s-3.1-1.2-3.1-2.8c0-1.6,1.2-2.7,3.7-2.8l2.5-0.1v-0.5
				c0-1.7-1.1-2.5-2.6-2.5c-1.4,0-2.5,0.6-2.7,0.8l-0.4-0.8c0.6-0.4,1.7-0.9,3.1-0.9s2.2,0.4,2.8,1c0.5,0.6,0.9,1.3,0.9,2.9V-510.3z
				 M1625.9-515l-2.6,0.2c-1.9,0.1-2.6,0.9-2.6,1.9s0.8,1.9,2.3,1.9s2.5-1,2.9-1.7V-515z"/>
			<path fill="#7F8C8D" d="M1637.1-510.3h-1.1v-5.5c0-1.5-0.3-3-2.3-3s-3,1.7-3,3.9v4.6h-1v-9.3h1v1.7c0.5-1.1,1.7-1.9,3-1.9
				c2.7,0,3.3,1.7,3.3,3.9V-510.3z"/>
			<path fill="#7F8C8D" d="M1643.3-515.4h-4.4v-1h4.4V-515.4z"/>
			<path fill="#7F8C8D" d="M1648.2-510.3h-1.1v-12.9h-2.8v-0.9h3.9V-510.3z"/>
		</g>
		<g id="col-span-1_35_">
			<path fill="#7F8C8D" d="M1470.9-510.1c-0.5,0-0.9-0.4-0.9-0.9c0-0.6,0.4-1,0.9-1c0.6,0,1,0.4,1,1
				C1471.9-510.5,1471.5-510.1,1470.9-510.1z"/>
			<path fill="#7F8C8D" d="M1482.5-511.7c-0.3,0.4-1.3,1.6-3.8,1.6c-2.5,0-4.5-2-4.5-4.8c0-2.9,2.2-4.8,4.6-4.8
				c2.5,0,3.5,1.3,3.7,1.6l-0.7,0.7c-0.4-0.5-1.2-1.4-3-1.4c-1.9,0-3.5,1.5-3.5,3.8c0,2.3,1.4,4,3.5,4c2.1,0,3.1-1.4,3.1-1.4
				L1482.5-511.7z"/>
			<path fill="#7F8C8D" d="M1488.3-510.1c-2.6,0-4.7-2-4.7-4.8c0-2.8,2.1-4.8,4.7-4.8c2.7,0,4.8,2,4.8,4.8
				C1493.1-512.1,1491-510.1,1488.3-510.1z M1488.3-518.8c-2.2,0-3.6,1.7-3.6,3.9c0,2.1,1.4,3.9,3.6,3.9c2.3,0,3.7-1.8,3.7-3.9
				C1492-517.1,1490.6-518.8,1488.3-518.8z"/>
			<path fill="#7F8C8D" d="M1496.5-510.3h-1v-13.8h1V-510.3z"/>
			<path fill="#7F8C8D" d="M1502.9-515.3h-4.4v-1h4.4V-515.3z"/>
			<path fill="#7F8C8D" d="M1507.2-510.1c-1.7,0-2.8-0.8-3.4-1.8l0.7-0.6c0.6,0.9,1.5,1.5,2.7,1.5c1.2,0,2.2-0.6,2.2-1.8
				c0-1.2-1.7-1.6-2.5-1.9c-0.8-0.3-2.5-0.9-2.5-2.6c0-1.7,1.5-2.5,2.8-2.5c1.4,0,2.2,0.5,2.9,1.3l-0.6,0.6
				c-0.6-0.7-1.3-1.1-2.3-1.1c-1,0-1.8,0.5-1.8,1.5c0,1,1,1.4,2.1,1.8c1.2,0.4,2.9,1,2.9,2.8
				C1510.5-511.1,1508.9-510.1,1507.2-510.1z"/>
			<path fill="#7F8C8D" d="M1517.3-510.1c-1.3,0-2.6-0.5-3.5-1.9v5.5h-1v-13.1h1v1.8c0.8-1.3,2.1-2,3.5-2c2.9,0,4.6,2.1,4.6,4.8
				C1521.8-512.1,1520-510.1,1517.3-510.1z M1517.2-518.8c-2.3,0-3.5,1.8-3.5,3.9c0,2.1,1.2,3.9,3.5,3.9c2.2,0,3.5-1.7,3.5-3.9
				C1520.7-517,1519.5-518.8,1517.2-518.8z"/>
			<path fill="#7F8C8D" d="M1530.5-510.3h-1.1v-1.3c-0.3,0.4-1.3,1.5-3.1,1.5c-1.8,0-3.1-1.2-3.1-2.8c0-1.6,1.2-2.7,3.7-2.8l2.5-0.1
				v-0.5c0-1.7-1.1-2.5-2.6-2.5c-1.4,0-2.5,0.6-2.7,0.8l-0.4-0.8c0.6-0.4,1.7-0.9,3.1-0.9c1.4,0,2.2,0.4,2.8,1
				c0.5,0.6,0.9,1.3,0.9,2.9V-510.3z M1529.5-515l-2.6,0.2c-1.9,0.1-2.6,0.9-2.6,1.9c0,1,0.8,1.9,2.3,1.9s2.5-1,2.9-1.7V-515z"/>
			<path fill="#7F8C8D" d="M1540.7-510.3h-1.1v-5.5c0-1.5-0.3-3-2.3-3c-2,0-3,1.7-3,3.9v4.6h-1v-9.3h1v1.7c0.5-1.1,1.7-1.9,3-1.9
				c2.7,0,3.3,1.7,3.3,3.9V-510.3z"/>
			<path fill="#7F8C8D" d="M1546.9-515.3h-4.4v-1h4.4V-515.3z"/>
			<path fill="#7F8C8D" d="M1551.8-510.3h-1.1v-12.9h-2.8v-0.9h3.9V-510.3z"/>
		</g>
		<g id="col-span-1_36_">
			<path fill="#7F8C8D" d="M1371.8-509.8c-0.5,0-0.9-0.4-0.9-0.9c0-0.6,0.4-1,0.9-1c0.6,0,1,0.4,1,1
				C1372.7-510.2,1372.3-509.8,1371.8-509.8z"/>
			<path fill="#7F8C8D" d="M1383.4-511.4c-0.3,0.4-1.3,1.6-3.8,1.6c-2.5,0-4.5-2-4.5-4.8c0-2.9,2.2-4.8,4.6-4.8
				c2.5,0,3.5,1.3,3.7,1.6l-0.7,0.7c-0.4-0.5-1.2-1.4-3-1.4c-1.9,0-3.5,1.5-3.5,3.8c0,2.3,1.4,4,3.5,4c2.1,0,3.1-1.4,3.1-1.4
				L1383.4-511.4z"/>
			<path fill="#7F8C8D" d="M1389.2-509.8c-2.6,0-4.7-2-4.7-4.8s2.1-4.8,4.7-4.8c2.7,0,4.8,2,4.8,4.8S1391.8-509.8,1389.2-509.8z
				 M1389.2-518.6c-2.2,0-3.6,1.7-3.6,3.9c0,2.1,1.4,3.9,3.6,3.9c2.3,0,3.7-1.8,3.7-3.9C1392.8-516.8,1391.4-518.6,1389.2-518.6z"/>
			<path fill="#7F8C8D" d="M1397.4-510h-1v-13.8h1V-510z"/>
			<path fill="#7F8C8D" d="M1403.8-515.1h-4.4v-1h4.4V-515.1z"/>
			<path fill="#7F8C8D" d="M1408.1-509.8c-1.7,0-2.8-0.8-3.4-1.8l0.7-0.6c0.6,0.9,1.5,1.5,2.7,1.5c1.2,0,2.2-0.6,2.2-1.8
				s-1.7-1.6-2.5-1.9c-0.8-0.3-2.5-0.9-2.5-2.6c0-1.7,1.5-2.5,2.8-2.5c1.4,0,2.2,0.5,2.9,1.3l-0.6,0.6c-0.6-0.7-1.3-1.1-2.3-1.1
				c-1,0-1.8,0.5-1.8,1.5c0,1,1,1.4,2.1,1.8c1.2,0.4,2.9,1,2.9,2.8C1411.3-510.8,1409.8-509.8,1408.1-509.8z"/>
			<path fill="#7F8C8D" d="M1418.1-509.8c-1.3,0-2.6-0.5-3.5-1.9v5.5h-1v-13.1h1v1.8c0.8-1.3,2.1-2,3.5-2c2.9,0,4.6,2.1,4.6,4.8
				C1422.7-511.9,1420.9-509.8,1418.1-509.8z M1418.1-518.6c-2.3,0-3.5,1.8-3.5,3.9c0,2.1,1.2,3.9,3.5,3.9c2.2,0,3.5-1.7,3.5-3.9
				C1421.6-516.8,1420.3-518.6,1418.1-518.6z"/>
			<path fill="#7F8C8D" d="M1431.4-510h-1.1v-1.3c-0.3,0.4-1.3,1.5-3.1,1.5s-3.1-1.2-3.1-2.8c0-1.6,1.2-2.7,3.7-2.8l2.5-0.1v-0.5
				c0-1.7-1.1-2.5-2.6-2.5c-1.4,0-2.5,0.6-2.7,0.8l-0.4-0.8c0.6-0.4,1.7-0.9,3.1-0.9c1.4,0,2.2,0.4,2.8,1c0.5,0.6,0.9,1.3,0.9,2.9
				V-510z M1430.3-514.7l-2.6,0.2c-1.9,0.1-2.6,0.9-2.6,1.9s0.8,1.9,2.3,1.9s2.5-1,2.9-1.7V-514.7z"/>
			<path fill="#7F8C8D" d="M1441.5-510h-1.1v-5.5c0-1.5-0.3-3-2.3-3s-3,1.7-3,3.9v4.6h-1v-9.3h1v1.7c0.5-1.1,1.7-1.9,3-1.9
				c2.7,0,3.3,1.7,3.3,3.9V-510z"/>
			<path fill="#7F8C8D" d="M1447.7-515.1h-4.4v-1h4.4V-515.1z"/>
			<path fill="#7F8C8D" d="M1452.6-510h-1.1v-12.9h-2.8v-0.9h3.9V-510z"/>
		</g>
		<g id="col-span-1_37_">
			<path fill="#7F8C8D" d="M1275.4-509.8c-0.5,0-0.9-0.4-0.9-0.9c0-0.6,0.4-1,0.9-1c0.6,0,1,0.4,1,1
				C1276.3-510.2,1275.9-509.8,1275.4-509.8z"/>
			<path fill="#7F8C8D" d="M1287-511.4c-0.3,0.4-1.3,1.6-3.8,1.6c-2.5,0-4.5-2-4.5-4.8c0-2.9,2.2-4.8,4.6-4.8c2.5,0,3.5,1.3,3.7,1.6
				l-0.7,0.7c-0.4-0.5-1.2-1.4-3-1.4c-1.9,0-3.5,1.5-3.5,3.8c0,2.3,1.4,4,3.5,4c2.1,0,3.1-1.4,3.1-1.4L1287-511.4z"/>
			<path fill="#7F8C8D" d="M1292.8-509.8c-2.6,0-4.7-2-4.7-4.8c0-2.8,2.1-4.8,4.7-4.8c2.7,0,4.8,2,4.8,4.8
				C1297.5-511.8,1295.4-509.8,1292.8-509.8z M1292.8-518.5c-2.2,0-3.6,1.7-3.6,3.9c0,2.1,1.4,3.9,3.6,3.9c2.3,0,3.7-1.8,3.7-3.9
				C1296.4-516.8,1295-518.5,1292.8-518.5z"/>
			<path fill="#7F8C8D" d="M1301-510h-1v-13.8h1V-510z"/>
			<path fill="#7F8C8D" d="M1307.4-515h-4.4v-1h4.4V-515z"/>
			<path fill="#7F8C8D" d="M1311.7-509.8c-1.7,0-2.8-0.8-3.4-1.8l0.7-0.6c0.6,0.9,1.5,1.5,2.7,1.5c1.2,0,2.2-0.6,2.2-1.8
				c0-1.2-1.7-1.6-2.5-1.9c-0.8-0.3-2.5-0.9-2.5-2.6c0-1.7,1.5-2.5,2.8-2.5c1.4,0,2.2,0.5,2.9,1.3l-0.6,0.6
				c-0.6-0.7-1.3-1.1-2.3-1.1c-1,0-1.8,0.5-1.8,1.5c0,1,1,1.4,2.1,1.8c1.2,0.4,2.9,1,2.9,2.8
				C1314.9-510.8,1313.4-509.8,1311.7-509.8z"/>
			<path fill="#7F8C8D" d="M1321.7-509.8c-1.3,0-2.6-0.5-3.5-1.9v5.5h-1v-13.1h1v1.8c0.8-1.3,2.1-2,3.5-2c2.9,0,4.6,2.1,4.6,4.8
				C1326.3-511.8,1324.5-509.8,1321.7-509.8z M1321.7-518.5c-2.3,0-3.5,1.8-3.5,3.9c0,2.1,1.2,3.9,3.5,3.9c2.2,0,3.5-1.7,3.5-3.9
				C1325.2-516.7,1323.9-518.5,1321.7-518.5z"/>
			<path fill="#7F8C8D" d="M1335-510h-1.1v-1.3c-0.3,0.4-1.3,1.5-3.1,1.5c-1.8,0-3.1-1.2-3.1-2.8c0-1.6,1.2-2.7,3.7-2.8l2.5-0.1
				v-0.5c0-1.7-1.1-2.5-2.6-2.5c-1.4,0-2.5,0.6-2.7,0.8l-0.4-0.8c0.6-0.4,1.7-0.9,3.1-0.9c1.4,0,2.2,0.4,2.8,1
				c0.5,0.6,0.9,1.3,0.9,2.9V-510z M1333.9-514.7l-2.6,0.2c-1.9,0.1-2.6,0.9-2.6,1.9c0,1,0.8,1.9,2.3,1.9s2.5-1,2.9-1.7V-514.7z"/>
			<path fill="#7F8C8D" d="M1345.1-510h-1.1v-5.5c0-1.5-0.3-3-2.3-3c-2,0-3,1.7-3,3.9v4.6h-1v-9.3h1v1.7c0.5-1.1,1.7-1.9,3-1.9
				c2.7,0,3.3,1.7,3.3,3.9V-510z"/>
			<path fill="#7F8C8D" d="M1351.3-515h-4.4v-1h4.4V-515z"/>
			<path fill="#7F8C8D" d="M1356.2-510h-1.1v-12.9h-2.8v-0.9h3.9V-510z"/>
		</g>
		<g id="col-span-1_38_">
			<path fill="#7F8C8D" d="M1176.6-510.2c-0.5,0-0.9-0.4-0.9-0.9c0-0.6,0.4-1,0.9-1c0.6,0,1,0.4,1,1
				C1177.6-510.6,1177.2-510.2,1176.6-510.2z"/>
			<path fill="#7F8C8D" d="M1188.2-511.8c-0.3,0.4-1.3,1.6-3.8,1.6c-2.5,0-4.5-2-4.5-4.8c0-2.9,2.2-4.8,4.6-4.8
				c2.5,0,3.5,1.3,3.7,1.6l-0.7,0.7c-0.4-0.5-1.2-1.4-3-1.4c-1.9,0-3.5,1.5-3.5,3.8c0,2.3,1.4,4,3.5,4c2.1,0,3.1-1.4,3.1-1.4
				L1188.2-511.8z"/>
			<path fill="#7F8C8D" d="M1194-510.2c-2.6,0-4.7-2-4.7-4.8c0-2.8,2.1-4.8,4.7-4.8c2.7,0,4.8,2,4.8,4.8
				C1198.8-512.2,1196.7-510.2,1194-510.2z M1194-519c-2.2,0-3.6,1.7-3.6,3.9c0,2.1,1.4,3.9,3.6,3.9c2.3,0,3.7-1.8,3.7-3.9
				C1197.7-517.2,1196.3-519,1194-519z"/>
			<path fill="#7F8C8D" d="M1202.2-510.4h-1v-13.8h1V-510.4z"/>
			<path fill="#7F8C8D" d="M1208.6-515.5h-4.4v-1h4.4V-515.5z"/>
			<path fill="#7F8C8D" d="M1212.9-510.2c-1.7,0-2.8-0.8-3.4-1.8l0.7-0.6c0.6,0.9,1.5,1.5,2.7,1.5c1.2,0,2.2-0.6,2.2-1.8
				c0-1.2-1.7-1.6-2.5-1.9c-0.8-0.3-2.5-0.9-2.5-2.6c0-1.7,1.5-2.5,2.8-2.5c1.4,0,2.2,0.5,2.9,1.3l-0.6,0.6
				c-0.6-0.7-1.3-1.1-2.3-1.1c-1,0-1.8,0.5-1.8,1.5c0,1,1,1.4,2.1,1.8c1.2,0.4,2.9,1,2.9,2.8
				C1216.2-511.2,1214.6-510.2,1212.9-510.2z"/>
			<path fill="#7F8C8D" d="M1223-510.2c-1.3,0-2.6-0.5-3.5-1.9v5.5h-1v-13.1h1v1.8c0.8-1.3,2.1-2,3.5-2c2.9,0,4.6,2.1,4.6,4.8
				C1227.5-512.3,1225.7-510.2,1223-510.2z M1222.9-519c-2.3,0-3.5,1.8-3.5,3.9c0,2.1,1.2,3.9,3.5,3.9c2.2,0,3.5-1.7,3.5-3.9
				C1226.4-517.2,1225.2-519,1222.9-519z"/>
			<path fill="#7F8C8D" d="M1236.2-510.4h-1.1v-1.3c-0.3,0.4-1.3,1.5-3.1,1.5s-3.1-1.2-3.1-2.8c0-1.6,1.2-2.7,3.7-2.8l2.5-0.1v-0.5
				c0-1.7-1.1-2.5-2.6-2.5c-1.4,0-2.5,0.6-2.7,0.8l-0.4-0.8c0.6-0.4,1.7-0.9,3.1-0.9s2.2,0.4,2.8,1c0.5,0.6,0.9,1.3,0.9,2.9V-510.4z
				 M1235.2-515.1l-2.6,0.2c-1.9,0.1-2.6,0.9-2.6,1.9s0.8,1.9,2.3,1.9s2.5-1,2.9-1.7V-515.1z"/>
			<path fill="#7F8C8D" d="M1246.3-510.4h-1.1v-5.5c0-1.5-0.3-3-2.3-3c-2,0-3,1.7-3,3.9v4.6h-1v-9.3h1v1.7c0.5-1.1,1.7-1.9,3-1.9
				c2.7,0,3.3,1.7,3.3,3.9V-510.4z"/>
			<path fill="#7F8C8D" d="M1252.5-515.5h-4.4v-1h4.4V-515.5z"/>
			<path fill="#7F8C8D" d="M1257.5-510.4h-1.1v-12.9h-2.8v-0.9h3.9V-510.4z"/>
		</g>
		<g id="col-span-1_39_">
			<path fill="#7F8C8D" d="M1080.2-510.2c-0.5,0-0.9-0.4-0.9-0.9c0-0.6,0.4-1,0.9-1c0.6,0,1,0.4,1,1
				C1081.2-510.6,1080.8-510.2,1080.2-510.2z"/>
			<path fill="#7F8C8D" d="M1091.8-511.8c-0.3,0.4-1.3,1.6-3.8,1.6c-2.5,0-4.5-2-4.5-4.8c0-2.9,2.2-4.8,4.6-4.8
				c2.5,0,3.5,1.3,3.7,1.6l-0.7,0.7c-0.4-0.5-1.2-1.4-3-1.4c-1.9,0-3.5,1.5-3.5,3.8c0,2.3,1.4,4,3.5,4c2.1,0,3.1-1.4,3.1-1.4
				L1091.8-511.8z"/>
			<path fill="#7F8C8D" d="M1097.6-510.2c-2.6,0-4.7-2-4.7-4.8c0-2.8,2.1-4.8,4.7-4.8c2.7,0,4.8,2,4.8,4.8
				C1102.4-512.2,1100.3-510.2,1097.6-510.2z M1097.6-518.9c-2.2,0-3.6,1.7-3.6,3.9c0,2.1,1.4,3.9,3.6,3.9c2.3,0,3.7-1.8,3.7-3.9
				C1101.3-517.2,1099.9-518.9,1097.6-518.9z"/>
			<path fill="#7F8C8D" d="M1105.8-510.4h-1v-13.8h1V-510.4z"/>
			<path fill="#7F8C8D" d="M1112.2-515.4h-4.4v-1h4.4V-515.4z"/>
			<path fill="#7F8C8D" d="M1116.5-510.2c-1.7,0-2.8-0.8-3.4-1.8l0.7-0.6c0.6,0.9,1.5,1.5,2.7,1.5c1.2,0,2.2-0.6,2.2-1.8
				s-1.7-1.6-2.5-1.9c-0.8-0.3-2.5-0.9-2.5-2.6c0-1.7,1.5-2.5,2.8-2.5c1.4,0,2.2,0.5,2.9,1.3l-0.6,0.6c-0.6-0.7-1.3-1.1-2.3-1.1
				c-1,0-1.8,0.5-1.8,1.5c0,1,1,1.4,2.1,1.8c1.2,0.4,2.9,1,2.9,2.8C1119.8-511.2,1118.2-510.2,1116.5-510.2z"/>
			<path fill="#7F8C8D" d="M1126.6-510.2c-1.3,0-2.6-0.5-3.5-1.9v5.5h-1v-13.1h1v1.8c0.8-1.3,2.1-2,3.5-2c2.9,0,4.6,2.1,4.6,4.8
				C1131.1-512.2,1129.3-510.2,1126.6-510.2z M1126.5-518.9c-2.3,0-3.5,1.8-3.5,3.9c0,2.1,1.2,3.9,3.5,3.9c2.2,0,3.5-1.7,3.5-3.9
				C1130-517.1,1128.8-518.9,1126.5-518.9z"/>
			<path fill="#7F8C8D" d="M1139.8-510.4h-1.1v-1.3c-0.3,0.4-1.3,1.5-3.1,1.5c-1.8,0-3.1-1.2-3.1-2.8c0-1.6,1.2-2.7,3.7-2.8l2.5-0.1
				v-0.5c0-1.7-1.1-2.5-2.6-2.5c-1.4,0-2.5,0.6-2.7,0.8l-0.4-0.8c0.6-0.4,1.7-0.9,3.1-0.9s2.2,0.4,2.8,1c0.5,0.6,0.9,1.3,0.9,2.9
				V-510.4z M1138.8-515.1l-2.6,0.2c-1.9,0.1-2.6,0.9-2.6,1.9s0.8,1.9,2.3,1.9c1.5,0,2.5-1,2.9-1.7V-515.1z"/>
			<path fill="#7F8C8D" d="M1149.9-510.4h-1.1v-5.5c0-1.5-0.3-3-2.3-3s-3,1.7-3,3.9v4.6h-1v-9.3h1v1.7c0.5-1.1,1.7-1.9,3-1.9
				c2.7,0,3.3,1.7,3.3,3.9V-510.4z"/>
			<path fill="#7F8C8D" d="M1156.1-515.4h-4.4v-1h4.4V-515.4z"/>
			<path fill="#7F8C8D" d="M1161.1-510.4h-1.1v-12.9h-2.8v-0.9h3.9V-510.4z"/>
		</g>
		<g id="col-span-2_16_">
			<path fill="#7F8C8D" d="M2100.2-428.7c-0.5,0-0.9-0.4-0.9-0.9c0-0.6,0.4-1,0.9-1c0.6,0,1,0.4,1,1
				C2101.1-429.1,2100.7-428.7,2100.2-428.7z"/>
			<path fill="#7F8C8D" d="M2111.8-430.3c-0.3,0.4-1.3,1.6-3.8,1.6s-4.5-2-4.5-4.8c0-2.9,2.2-4.8,4.6-4.8c2.5,0,3.5,1.3,3.7,1.6
				l-0.7,0.7c-0.4-0.5-1.2-1.4-3-1.4c-1.9,0-3.5,1.5-3.5,3.8c0,2.3,1.4,4,3.5,4c2.1,0,3.1-1.4,3.1-1.4L2111.8-430.3z"/>
			<path fill="#7F8C8D" d="M2117.6-428.7c-2.6,0-4.7-2-4.7-4.8c0-2.8,2.1-4.8,4.7-4.8c2.7,0,4.8,2,4.8,4.8
				C2122.3-430.7,2120.2-428.7,2117.6-428.7z M2117.6-437.4c-2.2,0-3.6,1.7-3.6,3.9c0,2.1,1.4,3.9,3.6,3.9c2.3,0,3.7-1.8,3.7-3.9
				C2121.2-435.7,2119.8-437.4,2117.6-437.4z"/>
			<path fill="#7F8C8D" d="M2125.8-428.9h-1v-13.8h1V-428.9z"/>
			<path fill="#7F8C8D" d="M2132.2-434h-4.4v-1h4.4V-434z"/>
			<path fill="#7F8C8D" d="M2136.5-428.7c-1.7,0-2.8-0.8-3.4-1.8l0.7-0.6c0.6,0.9,1.5,1.5,2.7,1.5s2.2-0.6,2.2-1.8s-1.7-1.6-2.5-1.9
				c-0.8-0.3-2.5-0.9-2.5-2.6c0-1.7,1.5-2.5,2.8-2.5c1.4,0,2.2,0.5,2.9,1.3l-0.6,0.6c-0.6-0.7-1.3-1.1-2.3-1.1s-1.8,0.5-1.8,1.5
				c0,1,1,1.4,2.1,1.8c1.2,0.4,2.9,1,2.9,2.8C2139.7-429.7,2138.2-428.7,2136.5-428.7z"/>
			<path fill="#7F8C8D" d="M2146.5-428.7c-1.3,0-2.6-0.5-3.5-1.9v5.5h-1v-13.1h1v1.8c0.8-1.3,2.1-2,3.5-2c2.9,0,4.6,2.1,4.6,4.8
				C2151.1-430.7,2149.3-428.7,2146.5-428.7z M2146.5-437.4c-2.3,0-3.5,1.8-3.5,3.9c0,2.1,1.2,3.9,3.5,3.9c2.2,0,3.5-1.7,3.5-3.9
				C2150-435.6,2148.7-437.4,2146.5-437.4z"/>
			<path fill="#7F8C8D" d="M2159.8-428.9h-1.1v-1.3c-0.3,0.4-1.3,1.5-3.1,1.5c-1.8,0-3.1-1.2-3.1-2.8c0-1.6,1.2-2.7,3.7-2.8l2.5-0.1
				v-0.5c0-1.7-1.1-2.5-2.6-2.5c-1.4,0-2.5,0.6-2.7,0.8l-0.4-0.8c0.6-0.4,1.7-0.9,3.1-0.9s2.2,0.4,2.8,1c0.5,0.6,0.9,1.3,0.9,2.9
				V-428.9z M2158.7-433.6l-2.6,0.2c-1.9,0.1-2.6,0.9-2.6,1.9s0.8,1.9,2.3,1.9s2.5-1,2.9-1.7V-433.6z"/>
			<path fill="#7F8C8D" d="M2169.9-428.9h-1.1v-5.5c0-1.5-0.3-3-2.3-3s-3,1.7-3,3.9v4.6h-1v-9.3h1v1.7c0.5-1.1,1.7-1.9,3-1.9
				c2.7,0,3.3,1.7,3.3,3.9V-428.9z"/>
			<path fill="#7F8C8D" d="M2176.1-434h-4.4v-1h4.4V-434z"/>
			<path fill="#7F8C8D" d="M2186.8-428.9h-8.8l-0.2-0.8l5-4.9c0.9-0.9,2.3-2.4,2.3-4.2c0-1.8-1.2-3.1-3.2-3.1c-2,0-3,1.5-3.4,2.4
				l-0.8-0.5c0.5-1.1,1.7-2.9,4.2-2.9c2.5,0,4.3,1.6,4.3,4.1c0,2.4-2.2,4.3-2.9,5l-4,3.9h7.5V-428.9z"/>
		</g>
		<g id="col-span-2_17_">
			<path fill="#7F8C8D" d="M1905.1-429.1c-0.5,0-0.9-0.4-0.9-0.9c0-0.6,0.4-1,0.9-1c0.6,0,1,0.4,1,1
				C1906.1-429.5,1905.7-429.1,1905.1-429.1z"/>
			<path fill="#7F8C8D" d="M1916.7-430.7c-0.3,0.4-1.3,1.6-3.8,1.6s-4.5-2-4.5-4.8c0-2.9,2.2-4.8,4.6-4.8c2.5,0,3.5,1.3,3.7,1.6
				l-0.7,0.7c-0.4-0.5-1.2-1.4-3-1.4c-1.9,0-3.5,1.5-3.5,3.8c0,2.3,1.4,4,3.5,4c2.1,0,3.1-1.4,3.1-1.4L1916.7-430.7z"/>
			<path fill="#7F8C8D" d="M1922.5-429.1c-2.6,0-4.7-2-4.7-4.8c0-2.8,2.1-4.8,4.7-4.8c2.7,0,4.8,2,4.8,4.8
				C1927.3-431.1,1925.2-429.1,1922.5-429.1z M1922.5-437.8c-2.2,0-3.6,1.7-3.6,3.9c0,2.1,1.4,3.9,3.6,3.9c2.3,0,3.7-1.8,3.7-3.9
				C1926.2-436.1,1924.8-437.8,1922.5-437.8z"/>
			<path fill="#7F8C8D" d="M1930.7-429.3h-1v-13.8h1V-429.3z"/>
			<path fill="#7F8C8D" d="M1937.1-434.3h-4.4v-1h4.4V-434.3z"/>
			<path fill="#7F8C8D" d="M1941.4-429.1c-1.7,0-2.8-0.8-3.4-1.8l0.7-0.6c0.6,0.9,1.5,1.5,2.7,1.5c1.2,0,2.2-0.6,2.2-1.8
				s-1.7-1.6-2.5-1.9c-0.8-0.3-2.5-0.9-2.5-2.6c0-1.7,1.5-2.5,2.8-2.5c1.4,0,2.2,0.5,2.9,1.3l-0.6,0.6c-0.6-0.7-1.3-1.1-2.3-1.1
				s-1.8,0.5-1.8,1.5c0,1,1,1.4,2.1,1.8c1.2,0.4,2.9,1,2.9,2.8C1944.7-430.1,1943.2-429.1,1941.4-429.1z"/>
			<path fill="#7F8C8D" d="M1951.5-429.1c-1.3,0-2.6-0.5-3.5-1.9v5.5h-1v-13.1h1v1.8c0.8-1.3,2.1-2,3.5-2c2.9,0,4.6,2.1,4.6,4.8
				C1956.1-431.1,1954.3-429.1,1951.5-429.1z M1951.5-437.8c-2.3,0-3.5,1.8-3.5,3.9c0,2.1,1.2,3.9,3.5,3.9c2.2,0,3.5-1.7,3.5-3.9
				C1955-436,1953.7-437.8,1951.5-437.8z"/>
			<path fill="#7F8C8D" d="M1964.8-429.3h-1.1v-1.3c-0.3,0.4-1.3,1.5-3.1,1.5c-1.8,0-3.1-1.2-3.1-2.8s1.2-2.7,3.7-2.8l2.5-0.1v-0.5
				c0-1.7-1.1-2.5-2.6-2.5c-1.4,0-2.5,0.6-2.7,0.8l-0.4-0.8c0.6-0.4,1.7-0.9,3.1-0.9s2.2,0.4,2.8,1c0.5,0.6,0.9,1.3,0.9,2.9V-429.3z
				 M1963.7-434l-2.6,0.2c-1.9,0.1-2.6,0.9-2.6,1.9s0.8,1.9,2.3,1.9s2.5-1,2.9-1.7V-434z"/>
			<path fill="#7F8C8D" d="M1974.9-429.3h-1.1v-5.5c0-1.5-0.3-3-2.3-3s-3,1.7-3,3.9v4.6h-1v-9.3h1v1.7c0.5-1.1,1.7-1.9,3-1.9
				c2.7,0,3.3,1.7,3.3,3.9V-429.3z"/>
			<path fill="#7F8C8D" d="M1981.1-434.3h-4.4v-1h4.4V-434.3z"/>
			<path fill="#7F8C8D" d="M1991.8-429.3h-8.8l-0.2-0.8l5-4.9c0.9-0.9,2.3-2.4,2.3-4.2c0-1.8-1.2-3.1-3.2-3.1s-3,1.5-3.4,2.4
				l-0.8-0.5c0.5-1.1,1.7-2.9,4.2-2.9s4.3,1.6,4.3,4.1c0,2.4-2.2,4.3-2.9,5l-4,3.9h7.5V-429.3z"/>
		</g>
		<g id="col-span-2_18_">
			<path fill="#7F8C8D" d="M1710.2-429.6c-0.5,0-0.9-0.4-0.9-0.9c0-0.6,0.4-1,0.9-1c0.6,0,1,0.4,1,1
				C1711.1-430,1710.7-429.6,1710.2-429.6z"/>
			<path fill="#7F8C8D" d="M1721.8-431.2c-0.3,0.4-1.3,1.6-3.8,1.6s-4.5-2-4.5-4.8c0-2.9,2.2-4.8,4.6-4.8c2.5,0,3.5,1.3,3.7,1.6
				l-0.7,0.7c-0.4-0.5-1.2-1.4-3-1.4c-1.9,0-3.5,1.5-3.5,3.8c0,2.3,1.4,4,3.5,4c2.1,0,3.1-1.4,3.1-1.4L1721.8-431.2z"/>
			<path fill="#7F8C8D" d="M1727.6-429.6c-2.6,0-4.7-2-4.7-4.8c0-2.8,2.1-4.8,4.7-4.8c2.7,0,4.8,2,4.8,4.8
				C1732.3-431.6,1730.2-429.6,1727.6-429.6z M1727.6-438.3c-2.2,0-3.6,1.7-3.6,3.9c0,2.1,1.4,3.9,3.6,3.9c2.3,0,3.7-1.8,3.7-3.9
				C1731.2-436.6,1729.8-438.3,1727.6-438.3z"/>
			<path fill="#7F8C8D" d="M1735.8-429.8h-1v-13.8h1V-429.8z"/>
			<path fill="#7F8C8D" d="M1742.2-434.8h-4.4v-1h4.4V-434.8z"/>
			<path fill="#7F8C8D" d="M1746.5-429.6c-1.7,0-2.8-0.8-3.4-1.8l0.7-0.6c0.6,0.9,1.5,1.5,2.7,1.5s2.2-0.6,2.2-1.8
				c0-1.2-1.7-1.6-2.5-1.9c-0.8-0.3-2.5-0.9-2.5-2.6c0-1.7,1.5-2.5,2.8-2.5c1.4,0,2.2,0.5,2.9,1.3l-0.6,0.6
				c-0.6-0.7-1.3-1.1-2.3-1.1c-1,0-1.8,0.5-1.8,1.5s1,1.4,2.1,1.8c1.2,0.4,2.9,1,2.9,2.8C1749.7-430.6,1748.2-429.6,1746.5-429.6z"
				/>
			<path fill="#7F8C8D" d="M1756.5-429.6c-1.3,0-2.6-0.5-3.5-1.9v5.5h-1V-439h1v1.8c0.8-1.3,2.1-2,3.5-2c2.9,0,4.6,2.1,4.6,4.8
				C1761.1-431.6,1759.3-429.6,1756.5-429.6z M1756.5-438.3c-2.3,0-3.5,1.8-3.5,3.9c0,2.1,1.2,3.9,3.5,3.9c2.2,0,3.5-1.7,3.5-3.9
				C1760-436.5,1758.7-438.3,1756.5-438.3z"/>
			<path fill="#7F8C8D" d="M1769.8-429.8h-1.1v-1.3c-0.3,0.4-1.3,1.5-3.1,1.5c-1.8,0-3.1-1.2-3.1-2.8c0-1.6,1.2-2.7,3.7-2.8l2.5-0.1
				v-0.5c0-1.7-1.1-2.5-2.6-2.5c-1.4,0-2.5,0.6-2.7,0.8l-0.4-0.8c0.6-0.4,1.7-0.9,3.1-0.9c1.4,0,2.2,0.4,2.8,1
				c0.5,0.6,0.9,1.3,0.9,2.9V-429.8z M1768.7-434.5l-2.6,0.2c-1.9,0.1-2.6,0.9-2.6,1.9s0.8,1.9,2.3,1.9s2.5-1,2.9-1.7V-434.5z"/>
			<path fill="#7F8C8D" d="M1779.9-429.8h-1.1v-5.5c0-1.5-0.3-3-2.3-3s-3,1.7-3,3.9v4.6h-1v-9.3h1v1.7c0.5-1.1,1.7-1.9,3-1.9
				c2.7,0,3.3,1.7,3.3,3.9V-429.8z"/>
			<path fill="#7F8C8D" d="M1786.1-434.8h-4.4v-1h4.4V-434.8z"/>
			<path fill="#7F8C8D" d="M1796.8-429.8h-8.8l-0.2-0.8l5-4.9c0.9-0.9,2.3-2.4,2.3-4.2c0-1.8-1.2-3.1-3.2-3.1c-2,0-3,1.5-3.4,2.4
				l-0.8-0.5c0.5-1.1,1.7-2.9,4.2-2.9c2.5,0,4.3,1.6,4.3,4.1c0,2.4-2.2,4.3-2.9,5l-4,3.9h7.5V-429.8z"/>
		</g>
		<g id="col-span-2_19_">
			<path fill="#7F8C8D" d="M1515.8-429.6c-0.5,0-0.9-0.4-0.9-0.9c0-0.6,0.4-1,0.9-1c0.6,0,1,0.4,1,1
				C1516.7-430,1516.3-429.6,1515.8-429.6z"/>
			<path fill="#7F8C8D" d="M1527.4-431.2c-0.3,0.4-1.3,1.6-3.8,1.6s-4.5-2-4.5-4.8c0-2.9,2.2-4.8,4.6-4.8c2.5,0,3.5,1.3,3.7,1.6
				l-0.7,0.7c-0.4-0.5-1.2-1.4-3-1.4c-1.9,0-3.5,1.5-3.5,3.8c0,2.3,1.4,4,3.5,4c2.1,0,3.1-1.4,3.1-1.4L1527.4-431.2z"/>
			<path fill="#7F8C8D" d="M1533.2-429.6c-2.6,0-4.7-2-4.7-4.8c0-2.8,2.1-4.8,4.7-4.8c2.7,0,4.8,2,4.8,4.8
				C1537.9-431.6,1535.8-429.6,1533.2-429.6z M1533.2-438.3c-2.2,0-3.6,1.7-3.6,3.9c0,2.1,1.4,3.9,3.6,3.9c2.3,0,3.7-1.8,3.7-3.9
				C1536.8-436.6,1535.4-438.3,1533.2-438.3z"/>
			<path fill="#7F8C8D" d="M1541.4-429.8h-1v-13.8h1V-429.8z"/>
			<path fill="#7F8C8D" d="M1547.8-434.8h-4.4v-1h4.4V-434.8z"/>
			<path fill="#7F8C8D" d="M1552.1-429.6c-1.7,0-2.8-0.8-3.4-1.8l0.7-0.6c0.6,0.9,1.5,1.5,2.7,1.5s2.2-0.6,2.2-1.8
				c0-1.2-1.7-1.6-2.5-1.9c-0.8-0.3-2.5-0.9-2.5-2.6c0-1.7,1.5-2.5,2.8-2.5c1.4,0,2.2,0.5,2.9,1.3l-0.6,0.6
				c-0.6-0.7-1.3-1.1-2.3-1.1c-1,0-1.8,0.5-1.8,1.5s1,1.4,2.1,1.8c1.2,0.4,2.9,1,2.9,2.8C1555.3-430.6,1553.8-429.6,1552.1-429.6z"
				/>
			<path fill="#7F8C8D" d="M1562.1-429.6c-1.3,0-2.6-0.5-3.5-1.9v5.5h-1V-439h1v1.8c0.8-1.3,2.1-2,3.5-2c2.9,0,4.6,2.1,4.6,4.8
				C1566.7-431.6,1564.9-429.6,1562.1-429.6z M1562.1-438.3c-2.3,0-3.5,1.8-3.5,3.9c0,2.1,1.2,3.9,3.5,3.9c2.2,0,3.5-1.7,3.5-3.9
				C1565.6-436.5,1564.3-438.3,1562.1-438.3z"/>
			<path fill="#7F8C8D" d="M1575.4-429.8h-1.1v-1.3c-0.3,0.4-1.3,1.5-3.1,1.5c-1.8,0-3.1-1.2-3.1-2.8c0-1.6,1.2-2.7,3.7-2.8l2.5-0.1
				v-0.5c0-1.7-1.1-2.5-2.6-2.5c-1.4,0-2.5,0.6-2.7,0.8l-0.4-0.8c0.6-0.4,1.7-0.9,3.1-0.9c1.4,0,2.2,0.4,2.8,1
				c0.5,0.6,0.9,1.3,0.9,2.9V-429.8z M1574.3-434.5l-2.6,0.2c-1.9,0.1-2.6,0.9-2.6,1.9s0.8,1.9,2.3,1.9s2.5-1,2.9-1.7V-434.5z"/>
			<path fill="#7F8C8D" d="M1585.5-429.8h-1.1v-5.5c0-1.5-0.3-3-2.3-3s-3,1.7-3,3.9v4.6h-1v-9.3h1v1.7c0.5-1.1,1.7-1.9,3-1.9
				c2.7,0,3.3,1.7,3.3,3.9V-429.8z"/>
			<path fill="#7F8C8D" d="M1591.7-434.8h-4.4v-1h4.4V-434.8z"/>
			<path fill="#7F8C8D" d="M1602.4-429.8h-8.8l-0.2-0.8l5-4.9c0.9-0.9,2.3-2.4,2.3-4.2c0-1.8-1.2-3.1-3.2-3.1c-2,0-3,1.5-3.4,2.4
				l-0.8-0.5c0.5-1.1,1.7-2.9,4.2-2.9c2.5,0,4.3,1.6,4.3,4.1c0,2.4-2.2,4.3-2.9,5l-4,3.9h7.5V-429.8z"/>
		</g>
		<g id="col-span-2_20_">
			<path fill="#7F8C8D" d="M1320.7-429.6c-0.5,0-0.9-0.4-0.9-0.9c0-0.6,0.4-1,0.9-1c0.6,0,1,0.4,1,1
				C1321.6-430,1321.2-429.6,1320.7-429.6z"/>
			<path fill="#7F8C8D" d="M1332.3-431.2c-0.3,0.4-1.3,1.6-3.8,1.6s-4.5-2-4.5-4.8c0-2.9,2.2-4.8,4.6-4.8c2.5,0,3.5,1.3,3.7,1.6
				l-0.7,0.7c-0.4-0.5-1.2-1.4-3-1.4c-1.9,0-3.5,1.5-3.5,3.8c0,2.3,1.4,4,3.5,4c2.1,0,3.1-1.4,3.1-1.4L1332.3-431.2z"/>
			<path fill="#7F8C8D" d="M1338.1-429.6c-2.6,0-4.7-2-4.7-4.8c0-2.8,2.1-4.8,4.7-4.8c2.7,0,4.8,2,4.8,4.8
				C1342.8-431.6,1340.7-429.6,1338.1-429.6z M1338.1-438.3c-2.2,0-3.6,1.7-3.6,3.9c0,2.1,1.4,3.9,3.6,3.9c2.3,0,3.7-1.8,3.7-3.9
				C1341.7-436.6,1340.3-438.3,1338.1-438.3z"/>
			<path fill="#7F8C8D" d="M1346.3-429.8h-1v-13.8h1V-429.8z"/>
			<path fill="#7F8C8D" d="M1352.7-434.9h-4.4v-1h4.4V-434.9z"/>
			<path fill="#7F8C8D" d="M1357-429.6c-1.7,0-2.8-0.8-3.4-1.8l0.7-0.6c0.6,0.9,1.5,1.5,2.7,1.5s2.2-0.6,2.2-1.8s-1.7-1.6-2.5-1.9
				c-0.8-0.3-2.5-0.9-2.5-2.6c0-1.7,1.5-2.5,2.8-2.5c1.4,0,2.2,0.5,2.9,1.3l-0.6,0.6c-0.6-0.7-1.3-1.1-2.3-1.1c-1,0-1.8,0.5-1.8,1.5
				c0,1,1,1.4,2.1,1.8c1.2,0.4,2.9,1,2.9,2.8C1360.2-430.6,1358.7-429.6,1357-429.6z"/>
			<path fill="#7F8C8D" d="M1367-429.6c-1.3,0-2.6-0.5-3.5-1.9v5.5h-1v-13.1h1v1.8c0.8-1.3,2.1-2,3.5-2c2.9,0,4.6,2.1,4.6,4.8
				C1371.6-431.6,1369.8-429.6,1367-429.6z M1367-438.3c-2.3,0-3.5,1.8-3.5,3.9c0,2.1,1.2,3.9,3.5,3.9c2.2,0,3.5-1.7,3.5-3.9
				C1370.5-436.5,1369.2-438.3,1367-438.3z"/>
			<path fill="#7F8C8D" d="M1380.3-429.8h-1.1v-1.3c-0.3,0.4-1.3,1.5-3.1,1.5s-3.1-1.2-3.1-2.8c0-1.6,1.2-2.7,3.7-2.8l2.5-0.1v-0.5
				c0-1.7-1.1-2.5-2.6-2.5c-1.4,0-2.5,0.6-2.7,0.8l-0.4-0.8c0.6-0.4,1.7-0.9,3.1-0.9s2.2,0.4,2.8,1c0.5,0.6,0.9,1.3,0.9,2.9V-429.8z
				 M1379.2-434.5l-2.6,0.2c-1.9,0.1-2.6,0.9-2.6,1.9s0.8,1.9,2.3,1.9s2.5-1,2.9-1.7V-434.5z"/>
			<path fill="#7F8C8D" d="M1390.4-429.8h-1.1v-5.5c0-1.5-0.3-3-2.3-3s-3,1.7-3,3.9v4.6h-1v-9.3h1v1.7c0.5-1.1,1.7-1.9,3-1.9
				c2.7,0,3.3,1.7,3.3,3.9V-429.8z"/>
			<path fill="#7F8C8D" d="M1396.6-434.9h-4.4v-1h4.4V-434.9z"/>
			<path fill="#7F8C8D" d="M1407.3-429.8h-8.8l-0.2-0.8l5-4.9c0.9-0.9,2.3-2.4,2.3-4.2c0-1.8-1.2-3.1-3.2-3.1c-2,0-3,1.5-3.4,2.4
				l-0.8-0.5c0.5-1.1,1.7-2.9,4.2-2.9c2.5,0,4.3,1.6,4.3,4.1c0,2.4-2.2,4.3-2.9,5l-4,3.9h7.5V-429.8z"/>
		</g>
		<g id="col-span-2_21_">
			<path fill="#7F8C8D" d="M1125.3-429.7c-0.5,0-0.9-0.4-0.9-0.9c0-0.6,0.4-1,0.9-1c0.6,0,1,0.4,1,1
				C1126.3-430.1,1125.9-429.7,1125.3-429.7z"/>
			<path fill="#7F8C8D" d="M1136.9-431.3c-0.3,0.4-1.3,1.6-3.8,1.6s-4.5-2-4.5-4.8c0-2.9,2.2-4.8,4.6-4.8c2.5,0,3.5,1.3,3.7,1.6
				l-0.7,0.7c-0.4-0.5-1.2-1.4-3-1.4c-1.9,0-3.5,1.5-3.5,3.8c0,2.3,1.4,4,3.5,4c2.1,0,3.1-1.4,3.1-1.4L1136.9-431.3z"/>
			<path fill="#7F8C8D" d="M1142.7-429.7c-2.6,0-4.7-2-4.7-4.8c0-2.8,2.1-4.8,4.7-4.8c2.7,0,4.8,2,4.8,4.8
				C1147.5-431.7,1145.4-429.7,1142.7-429.7z M1142.7-438.4c-2.2,0-3.6,1.7-3.6,3.9c0,2.1,1.4,3.9,3.6,3.9c2.3,0,3.7-1.8,3.7-3.9
				C1146.4-436.7,1145-438.4,1142.7-438.4z"/>
			<path fill="#7F8C8D" d="M1150.9-429.9h-1v-13.8h1V-429.9z"/>
			<path fill="#7F8C8D" d="M1157.3-435h-4.4v-1h4.4V-435z"/>
			<path fill="#7F8C8D" d="M1161.6-429.7c-1.7,0-2.8-0.8-3.4-1.8l0.7-0.6c0.6,0.9,1.5,1.5,2.7,1.5s2.2-0.6,2.2-1.8s-1.7-1.6-2.5-1.9
				c-0.8-0.3-2.5-0.9-2.5-2.6c0-1.7,1.5-2.5,2.8-2.5c1.4,0,2.2,0.5,2.9,1.3l-0.6,0.6c-0.6-0.7-1.3-1.1-2.3-1.1c-1,0-1.8,0.5-1.8,1.5
				c0,1,1,1.4,2.1,1.8c1.2,0.4,2.9,1,2.9,2.8C1164.9-430.7,1163.3-429.7,1161.6-429.7z"/>
			<path fill="#7F8C8D" d="M1171.7-429.7c-1.3,0-2.6-0.5-3.5-1.9v5.5h-1v-13.1h1v1.8c0.8-1.3,2.1-2,3.5-2c2.9,0,4.6,2.1,4.6,4.8
				C1176.2-431.7,1174.4-429.7,1171.7-429.7z M1171.6-438.4c-2.3,0-3.5,1.8-3.5,3.9c0,2.1,1.2,3.9,3.5,3.9c2.2,0,3.5-1.7,3.5-3.9
				C1175.1-436.6,1173.9-438.4,1171.6-438.4z"/>
			<path fill="#7F8C8D" d="M1184.9-429.9h-1.1v-1.3c-0.3,0.4-1.3,1.5-3.1,1.5c-1.8,0-3.1-1.2-3.1-2.8c0-1.6,1.2-2.7,3.7-2.8l2.5-0.1
				v-0.5c0-1.7-1.1-2.5-2.6-2.5c-1.4,0-2.5,0.6-2.7,0.8l-0.4-0.8c0.6-0.4,1.7-0.9,3.1-0.9s2.2,0.4,2.8,1c0.5,0.6,0.9,1.3,0.9,2.9
				V-429.9z M1183.9-434.6l-2.6,0.2c-1.9,0.1-2.6,0.9-2.6,1.9s0.8,1.9,2.3,1.9s2.5-1,2.9-1.7V-434.6z"/>
			<path fill="#7F8C8D" d="M1195-429.9h-1.1v-5.5c0-1.5-0.3-3-2.3-3s-3,1.7-3,3.9v4.6h-1v-9.3h1v1.7c0.5-1.1,1.7-1.9,3-1.9
				c2.7,0,3.3,1.7,3.3,3.9V-429.9z"/>
			<path fill="#7F8C8D" d="M1201.2-435h-4.4v-1h4.4V-435z"/>
			<path fill="#7F8C8D" d="M1212-429.9h-8.8l-0.2-0.8l5-4.9c0.9-0.9,2.3-2.4,2.3-4.2c0-1.8-1.2-3.1-3.2-3.1c-2,0-3,1.5-3.4,2.4
				l-0.8-0.5c0.5-1.1,1.7-2.9,4.2-2.9c2.5,0,4.3,1.6,4.3,4.1c0,2.4-2.2,4.3-2.9,5l-4,3.9h7.5V-429.9z"/>
		</g>
		<g id="col-span-3_12_">
			<path fill="#7F8C8D" d="M1761.7-348.7c-0.5,0-0.9-0.4-0.9-0.9c0-0.6,0.4-1,0.9-1c0.6,0,1,0.4,1,1
				C1762.7-349.1,1762.3-348.7,1761.7-348.7z"/>
			<path fill="#7F8C8D" d="M1773.3-350.3c-0.3,0.4-1.3,1.6-3.8,1.6c-2.5,0-4.5-2-4.5-4.8c0-2.9,2.2-4.8,4.6-4.8
				c2.5,0,3.5,1.3,3.7,1.6l-0.7,0.7c-0.4-0.5-1.2-1.4-3-1.4c-1.9,0-3.5,1.5-3.5,3.8c0,2.3,1.4,4,3.5,4s3.1-1.4,3.1-1.4L1773.3-350.3
				z"/>
			<path fill="#7F8C8D" d="M1779.1-348.7c-2.6,0-4.7-2-4.7-4.8c0-2.8,2.1-4.8,4.7-4.8c2.7,0,4.8,2,4.8,4.8
				C1783.9-350.7,1781.8-348.7,1779.1-348.7z M1779.1-357.4c-2.2,0-3.6,1.7-3.6,3.9c0,2.1,1.4,3.9,3.6,3.9c2.3,0,3.7-1.8,3.7-3.9
				C1782.8-355.7,1781.4-357.4,1779.1-357.4z"/>
			<path fill="#7F8C8D" d="M1787.3-348.9h-1v-13.8h1V-348.9z"/>
			<path fill="#7F8C8D" d="M1793.7-353.9h-4.4v-1h4.4V-353.9z"/>
			<path fill="#7F8C8D" d="M1798-348.7c-1.7,0-2.8-0.8-3.4-1.8l0.7-0.6c0.6,0.9,1.5,1.5,2.7,1.5s2.2-0.6,2.2-1.8s-1.7-1.6-2.5-1.9
				c-0.8-0.3-2.5-0.9-2.5-2.6c0-1.7,1.5-2.5,2.8-2.5c1.4,0,2.2,0.5,2.9,1.3l-0.6,0.6c-0.6-0.7-1.3-1.1-2.3-1.1c-1,0-1.8,0.5-1.8,1.5
				c0,1,1,1.4,2.1,1.8c1.2,0.4,2.9,1,2.9,2.8C1801.3-349.7,1799.8-348.7,1798-348.7z"/>
			<path fill="#7F8C8D" d="M1808.1-348.7c-1.3,0-2.6-0.5-3.5-1.9v5.5h-1v-13.1h1v1.8c0.8-1.3,2.1-2,3.5-2c2.9,0,4.6,2.1,4.6,4.8
				C1812.7-350.7,1810.9-348.7,1808.1-348.7z M1808.1-357.4c-2.3,0-3.5,1.8-3.5,3.9c0,2.1,1.2,3.9,3.5,3.9c2.2,0,3.5-1.7,3.5-3.9
				C1811.6-355.6,1810.3-357.4,1808.1-357.4z"/>
			<path fill="#7F8C8D" d="M1821.4-348.9h-1.1v-1.3c-0.3,0.4-1.3,1.5-3.1,1.5c-1.8,0-3.1-1.2-3.1-2.8s1.2-2.7,3.7-2.8l2.5-0.1v-0.5
				c0-1.7-1.1-2.5-2.6-2.5c-1.4,0-2.5,0.6-2.7,0.8l-0.4-0.8c0.6-0.4,1.7-0.9,3.1-0.9c1.4,0,2.2,0.4,2.8,1c0.5,0.6,0.9,1.3,0.9,2.9
				V-348.9z M1820.3-353.6l-2.6,0.2c-1.9,0.1-2.6,0.9-2.6,1.9s0.8,1.9,2.3,1.9s2.5-1,2.9-1.7V-353.6z"/>
			<path fill="#7F8C8D" d="M1831.5-348.9h-1.1v-5.5c0-1.5-0.3-3-2.3-3c-2,0-3,1.7-3,3.9v4.6h-1v-9.3h1v1.7c0.5-1.1,1.7-1.9,3-1.9
				c2.7,0,3.3,1.7,3.3,3.9V-348.9z"/>
			<path fill="#7F8C8D" d="M1837.7-353.9h-4.4v-1h4.4V-353.9z"/>
			<path fill="#7F8C8D" d="M1843.1-348.7c-2.8,0-4.1-2.4-4.1-2.4l0.8-0.6c0,0,1.2,2.1,3.3,2.1s3.6-1,3.6-3c0-2-1.5-3-3.3-3h-0.9v-1
				h0.9c1.7,0,2.9-1,2.9-2.7s-1.4-2.6-3-2.6s-2.5,0.8-3.3,1.7l-0.7-0.6c0.9-1.1,2-2.1,4.1-2.1c2.1,0,4,1.3,4,3.5
				c0,2.2-1.6,3-2.4,3.2v0.1c1,0.1,2.8,1.1,2.8,3.5C1847.8-350.3,1845.8-348.7,1843.1-348.7z"/>
		</g>
		<g id="col-span-3_13_">
			<path fill="#7F8C8D" d="M2052.2-349.7c-0.5,0-0.9-0.4-0.9-0.9c0-0.6,0.4-1,0.9-1c0.6,0,1,0.4,1,1
				C2053.1-350.1,2052.7-349.7,2052.2-349.7z"/>
			<path fill="#7F8C8D" d="M2063.8-351.3c-0.3,0.4-1.3,1.6-3.8,1.6c-2.5,0-4.5-2-4.5-4.8c0-2.9,2.2-4.8,4.6-4.8
				c2.5,0,3.5,1.3,3.7,1.6l-0.7,0.7c-0.4-0.5-1.2-1.4-3-1.4c-1.9,0-3.5,1.5-3.5,3.8c0,2.3,1.4,4,3.5,4s3.1-1.4,3.1-1.4L2063.8-351.3
				z"/>
			<path fill="#7F8C8D" d="M2069.6-349.7c-2.6,0-4.7-2-4.7-4.8c0-2.8,2.1-4.8,4.7-4.8c2.7,0,4.8,2,4.8,4.8
				C2074.3-351.7,2072.2-349.7,2069.6-349.7z M2069.6-358.4c-2.2,0-3.6,1.7-3.6,3.9c0,2.1,1.4,3.9,3.6,3.9c2.3,0,3.7-1.8,3.7-3.9
				C2073.2-356.7,2071.8-358.4,2069.6-358.4z"/>
			<path fill="#7F8C8D" d="M2077.8-349.9h-1v-13.8h1V-349.9z"/>
			<path fill="#7F8C8D" d="M2084.2-354.9h-4.4v-1h4.4V-354.9z"/>
			<path fill="#7F8C8D" d="M2088.5-349.7c-1.7,0-2.8-0.8-3.4-1.8l0.7-0.6c0.6,0.9,1.5,1.5,2.7,1.5s2.2-0.6,2.2-1.8s-1.7-1.6-2.5-1.9
				c-0.8-0.3-2.5-0.9-2.5-2.6c0-1.7,1.5-2.5,2.8-2.5c1.4,0,2.2,0.5,2.9,1.3l-0.6,0.6c-0.6-0.7-1.3-1.1-2.3-1.1c-1,0-1.8,0.5-1.8,1.5
				c0,1,1,1.4,2.1,1.8c1.2,0.4,2.9,1,2.9,2.8C2091.7-350.7,2090.2-349.7,2088.5-349.7z"/>
			<path fill="#7F8C8D" d="M2098.5-349.7c-1.3,0-2.6-0.5-3.5-1.9v5.5h-1v-13.1h1v1.8c0.8-1.3,2.1-2,3.5-2c2.9,0,4.6,2.1,4.6,4.8
				C2103.1-351.7,2101.3-349.7,2098.5-349.7z M2098.5-358.4c-2.3,0-3.5,1.8-3.5,3.9c0,2.1,1.2,3.9,3.5,3.9c2.2,0,3.5-1.7,3.5-3.9
				C2102-356.6,2100.7-358.4,2098.5-358.4z"/>
			<path fill="#7F8C8D" d="M2111.8-349.9h-1.1v-1.3c-0.3,0.4-1.3,1.5-3.1,1.5c-1.8,0-3.1-1.2-3.1-2.8s1.2-2.7,3.7-2.8l2.5-0.1v-0.5
				c0-1.7-1.1-2.5-2.6-2.5c-1.4,0-2.5,0.6-2.7,0.8l-0.4-0.8c0.6-0.4,1.7-0.9,3.1-0.9c1.4,0,2.2,0.4,2.8,1c0.5,0.6,0.9,1.3,0.9,2.9
				V-349.9z M2110.7-354.6l-2.6,0.2c-1.9,0.1-2.6,0.9-2.6,1.9s0.8,1.9,2.3,1.9s2.5-1,2.9-1.7V-354.6z"/>
			<path fill="#7F8C8D" d="M2121.9-349.9h-1.1v-5.5c0-1.5-0.3-3-2.3-3c-2,0-3,1.7-3,3.9v4.6h-1v-9.3h1v1.7c0.5-1.1,1.7-1.9,3-1.9
				c2.7,0,3.3,1.7,3.3,3.9V-349.9z"/>
			<path fill="#7F8C8D" d="M2128.1-354.9h-4.4v-1h4.4V-354.9z"/>
			<path fill="#7F8C8D" d="M2133.5-349.7c-2.8,0-4.1-2.4-4.1-2.4l0.8-0.6c0,0,1.2,2.1,3.3,2.1s3.6-1,3.6-3c0-2-1.5-3-3.3-3h-0.9v-1
				h0.9c1.7,0,2.9-1,2.9-2.7s-1.4-2.6-3-2.6s-2.5,0.8-3.3,1.7l-0.7-0.6c0.9-1.1,2-2.1,4.1-2.1c2.1,0,4,1.3,4,3.5
				c0,2.2-1.6,3-2.4,3.2v0.1c1,0.1,2.8,1.1,2.8,3.5C2138.2-351.3,2136.3-349.7,2133.5-349.7z"/>
		</g>
		<g id="col-span-3_14_">
			<path fill="#7F8C8D" d="M1467-349c-0.5,0-0.9-0.4-0.9-0.9c0-0.6,0.4-1,0.9-1c0.6,0,1,0.4,1,1C1468-349.4,1467.6-349,1467-349z"/>
			<path fill="#7F8C8D" d="M1478.6-350.6c-0.3,0.4-1.3,1.6-3.8,1.6c-2.5,0-4.5-2-4.5-4.8c0-2.9,2.2-4.8,4.6-4.8
				c2.5,0,3.5,1.3,3.7,1.6l-0.7,0.7c-0.4-0.5-1.2-1.4-3-1.4c-1.9,0-3.5,1.5-3.5,3.8c0,2.3,1.4,4,3.5,4c2.1,0,3.1-1.4,3.1-1.4
				L1478.6-350.6z"/>
			<path fill="#7F8C8D" d="M1484.4-349c-2.6,0-4.7-2-4.7-4.8s2.1-4.8,4.7-4.8c2.7,0,4.8,2,4.8,4.8S1487.1-349,1484.4-349z
				 M1484.4-357.8c-2.2,0-3.6,1.7-3.6,3.9c0,2.1,1.4,3.9,3.6,3.9c2.3,0,3.7-1.8,3.7-3.9C1488.1-356,1486.7-357.8,1484.4-357.8z"/>
			<path fill="#7F8C8D" d="M1492.6-349.2h-1V-363h1V-349.2z"/>
			<path fill="#7F8C8D" d="M1499-354.3h-4.4v-1h4.4V-354.3z"/>
			<path fill="#7F8C8D" d="M1503.3-349c-1.7,0-2.8-0.8-3.4-1.8l0.7-0.6c0.6,0.9,1.5,1.5,2.7,1.5s2.2-0.6,2.2-1.8
				c0-1.2-1.7-1.6-2.5-1.9c-0.8-0.3-2.5-0.9-2.5-2.6c0-1.7,1.5-2.5,2.8-2.5c1.4,0,2.2,0.5,2.9,1.3l-0.6,0.6
				c-0.6-0.7-1.3-1.1-2.3-1.1c-1,0-1.8,0.5-1.8,1.5s1,1.4,2.1,1.8c1.2,0.4,2.9,1,2.9,2.8C1506.6-350,1505-349,1503.3-349z"/>
			<path fill="#7F8C8D" d="M1513.4-349c-1.3,0-2.6-0.5-3.5-1.9v5.5h-1v-13.1h1v1.8c0.8-1.3,2.1-2,3.5-2c2.9,0,4.6,2.1,4.6,4.8
				C1517.9-351.1,1516.1-349,1513.4-349z M1513.3-357.8c-2.3,0-3.5,1.8-3.5,3.9c0,2.1,1.2,3.9,3.5,3.9c2.2,0,3.5-1.7,3.5-3.9
				C1516.8-356,1515.6-357.8,1513.3-357.8z"/>
			<path fill="#7F8C8D" d="M1526.6-349.2h-1.1v-1.3c-0.3,0.4-1.3,1.5-3.1,1.5c-1.8,0-3.1-1.2-3.1-2.8c0-1.6,1.2-2.7,3.7-2.8l2.5-0.1
				v-0.5c0-1.7-1.1-2.5-2.6-2.5c-1.4,0-2.5,0.6-2.7,0.8l-0.4-0.8c0.6-0.4,1.7-0.9,3.1-0.9c1.4,0,2.2,0.4,2.8,1
				c0.5,0.6,0.9,1.3,0.9,2.9V-349.2z M1525.6-353.9l-2.6,0.2c-1.9,0.1-2.6,0.9-2.6,1.9s0.8,1.9,2.3,1.9s2.5-1,2.9-1.7V-353.9z"/>
			<path fill="#7F8C8D" d="M1536.8-349.2h-1.1v-5.5c0-1.5-0.3-3-2.3-3c-2,0-3,1.7-3,3.9v4.6h-1v-9.3h1v1.7c0.5-1.1,1.7-1.9,3-1.9
				c2.7,0,3.3,1.7,3.3,3.9V-349.2z"/>
			<path fill="#7F8C8D" d="M1543-354.3h-4.4v-1h4.4V-354.3z"/>
			<path fill="#7F8C8D" d="M1548.4-349c-2.8,0-4.1-2.4-4.1-2.4l0.8-0.6c0,0,1.2,2.1,3.3,2.1c2.1,0,3.6-1,3.6-3c0-2-1.5-3-3.3-3h-0.9
				v-1h0.9c1.7,0,2.9-1,2.9-2.7c0-1.7-1.4-2.6-3-2.6c-1.6,0-2.5,0.8-3.3,1.7l-0.7-0.6c0.9-1.1,2-2.1,4.1-2.1c2.1,0,4,1.3,4,3.5
				s-1.6,3-2.4,3.2v0.1c1,0.1,2.8,1.1,2.8,3.5C1553.1-350.6,1551.1-349,1548.4-349z"/>
		</g>
		<g id="col-span-3_15_">
			<path fill="#7F8C8D" d="M1173.9-348.7c-0.5,0-0.9-0.4-0.9-0.9c0-0.6,0.4-1,0.9-1c0.6,0,1,0.4,1,1
				C1174.8-349.1,1174.4-348.7,1173.9-348.7z"/>
			<path fill="#7F8C8D" d="M1185.5-350.3c-0.3,0.4-1.3,1.6-3.8,1.6c-2.5,0-4.5-2-4.5-4.8c0-2.9,2.2-4.8,4.6-4.8
				c2.5,0,3.5,1.3,3.7,1.6l-0.7,0.7c-0.4-0.5-1.2-1.4-3-1.4c-1.9,0-3.5,1.5-3.5,3.8c0,2.3,1.4,4,3.5,4c2.1,0,3.1-1.4,3.1-1.4
				L1185.5-350.3z"/>
			<path fill="#7F8C8D" d="M1191.3-348.7c-2.6,0-4.7-2-4.7-4.8c0-2.8,2.1-4.8,4.7-4.8c2.7,0,4.8,2,4.8,4.8
				C1196-350.7,1193.9-348.7,1191.3-348.7z M1191.3-357.4c-2.2,0-3.6,1.7-3.6,3.9c0,2.1,1.4,3.9,3.6,3.9c2.3,0,3.7-1.8,3.7-3.9
				C1194.9-355.7,1193.5-357.4,1191.3-357.4z"/>
			<path fill="#7F8C8D" d="M1199.5-348.9h-1v-13.8h1V-348.9z"/>
			<path fill="#7F8C8D" d="M1205.9-354h-4.4v-1h4.4V-354z"/>
			<path fill="#7F8C8D" d="M1210.2-348.7c-1.7,0-2.8-0.8-3.4-1.8l0.7-0.6c0.6,0.9,1.5,1.5,2.7,1.5s2.2-0.6,2.2-1.8s-1.7-1.6-2.5-1.9
				c-0.8-0.3-2.5-0.9-2.5-2.6c0-1.7,1.5-2.5,2.8-2.5c1.4,0,2.2,0.5,2.9,1.3l-0.6,0.6c-0.6-0.7-1.3-1.1-2.3-1.1c-1,0-1.8,0.5-1.8,1.5
				c0,1,1,1.4,2.1,1.8c1.2,0.4,2.9,1,2.9,2.8C1213.4-349.7,1211.9-348.7,1210.2-348.7z"/>
			<path fill="#7F8C8D" d="M1220.2-348.7c-1.3,0-2.6-0.5-3.5-1.9v5.5h-1v-13.1h1v1.8c0.8-1.3,2.1-2,3.5-2c2.9,0,4.6,2.1,4.6,4.8
				C1224.8-350.7,1223-348.7,1220.2-348.7z M1220.2-357.4c-2.3,0-3.5,1.8-3.5,3.9c0,2.1,1.2,3.9,3.5,3.9c2.2,0,3.5-1.7,3.5-3.9
				C1223.7-355.6,1222.4-357.4,1220.2-357.4z"/>
			<path fill="#7F8C8D" d="M1233.5-348.9h-1.1v-1.3c-0.3,0.4-1.3,1.5-3.1,1.5c-1.8,0-3.1-1.2-3.1-2.8c0-1.6,1.2-2.7,3.7-2.8l2.5-0.1
				v-0.5c0-1.7-1.1-2.5-2.6-2.5c-1.4,0-2.5,0.6-2.7,0.8l-0.4-0.8c0.6-0.4,1.7-0.9,3.1-0.9c1.4,0,2.2,0.4,2.8,1
				c0.5,0.6,0.9,1.3,0.9,2.9V-348.9z M1232.4-353.6l-2.6,0.2c-1.9,0.1-2.6,0.9-2.6,1.9s0.8,1.9,2.3,1.9s2.5-1,2.9-1.7V-353.6z"/>
			<path fill="#7F8C8D" d="M1243.6-348.9h-1.1v-5.5c0-1.5-0.3-3-2.3-3c-2,0-3,1.7-3,3.9v4.6h-1v-9.3h1v1.7c0.5-1.1,1.7-1.9,3-1.9
				c2.7,0,3.3,1.7,3.3,3.9V-348.9z"/>
			<path fill="#7F8C8D" d="M1249.8-354h-4.4v-1h4.4V-354z"/>
			<path fill="#7F8C8D" d="M1255.2-348.7c-2.8,0-4.1-2.4-4.1-2.4l0.8-0.6c0,0,1.2,2.1,3.3,2.1c2.1,0,3.6-1,3.6-3c0-2-1.5-3-3.3-3
				h-0.9v-1h0.9c1.7,0,2.9-1,2.9-2.7c0-1.7-1.4-2.6-3-2.6s-2.5,0.8-3.3,1.7l-0.7-0.6c0.9-1.1,2-2.1,4.1-2.1c2.1,0,4,1.3,4,3.5
				s-1.6,3-2.4,3.2v0.1c1,0.1,2.8,1.1,2.8,3.5C1259.9-350.3,1258-348.7,1255.2-348.7z"/>
		</g>
		<g id="col-span-4_12_">
			<path fill="#7F8C8D" d="M2002.4-267.7c-0.5,0-0.9-0.4-0.9-0.9c0-0.6,0.4-1,0.9-1c0.6,0,1,0.4,1,1
				C2003.3-268.1,2002.9-267.7,2002.4-267.7z"/>
			<path fill="#7F8C8D" d="M2014-269.3c-0.3,0.4-1.3,1.6-3.8,1.6c-2.5,0-4.5-2-4.5-4.8c0-2.9,2.2-4.8,4.6-4.8c2.5,0,3.5,1.3,3.7,1.6
				l-0.7,0.7c-0.4-0.5-1.2-1.4-3-1.4c-1.9,0-3.5,1.5-3.5,3.8c0,2.3,1.4,4,3.5,4s3.1-1.4,3.1-1.4L2014-269.3z"/>
			<path fill="#7F8C8D" d="M2019.8-267.7c-2.6,0-4.7-2-4.7-4.8c0-2.8,2.1-4.8,4.7-4.8c2.7,0,4.8,2,4.8,4.8
				C2024.5-269.7,2022.4-267.7,2019.8-267.7z M2019.8-276.5c-2.2,0-3.6,1.7-3.6,3.9c0,2.1,1.4,3.9,3.6,3.9c2.3,0,3.7-1.8,3.7-3.9
				C2023.4-274.7,2022-276.5,2019.8-276.5z"/>
			<path fill="#7F8C8D" d="M2028-267.9h-1v-13.8h1V-267.9z"/>
			<path fill="#7F8C8D" d="M2034.4-273h-4.4v-1h4.4V-273z"/>
			<path fill="#7F8C8D" d="M2038.7-267.7c-1.7,0-2.8-0.8-3.4-1.8l0.7-0.6c0.6,0.9,1.5,1.5,2.7,1.5c1.2,0,2.2-0.6,2.2-1.8
				c0-1.2-1.7-1.6-2.5-1.9c-0.8-0.3-2.5-0.9-2.5-2.6c0-1.7,1.5-2.5,2.8-2.5s2.2,0.5,2.9,1.3l-0.6,0.6c-0.6-0.7-1.3-1.1-2.3-1.1
				c-1,0-1.8,0.5-1.8,1.5c0,1,1,1.4,2.1,1.8c1.2,0.4,2.9,1,2.9,2.8C2041.9-268.7,2040.4-267.7,2038.7-267.7z"/>
			<path fill="#7F8C8D" d="M2048.7-267.7c-1.3,0-2.6-0.5-3.5-1.9v5.5h-1v-13.1h1v1.8c0.8-1.3,2.1-2,3.5-2c2.9,0,4.6,2.1,4.6,4.8
				C2053.3-269.8,2051.5-267.7,2048.7-267.7z M2048.7-276.5c-2.3,0-3.5,1.8-3.5,3.9c0,2.1,1.2,3.9,3.5,3.9c2.2,0,3.5-1.7,3.5-3.9
				C2052.2-274.7,2050.9-276.5,2048.7-276.5z"/>
			<path fill="#7F8C8D" d="M2062-267.9h-1.1v-1.3c-0.3,0.4-1.3,1.5-3.1,1.5c-1.8,0-3.1-1.2-3.1-2.8c0-1.6,1.2-2.7,3.7-2.8l2.5-0.1
				v-0.5c0-1.7-1.1-2.5-2.6-2.5c-1.4,0-2.5,0.6-2.7,0.8l-0.4-0.8c0.6-0.4,1.7-0.9,3.1-0.9c1.4,0,2.2,0.4,2.8,1
				c0.5,0.6,0.9,1.3,0.9,2.9V-267.9z M2060.9-272.6l-2.6,0.2c-1.9,0.1-2.6,0.9-2.6,1.9s0.8,1.9,2.3,1.9s2.5-1,2.9-1.7V-272.6z"/>
			<path fill="#7F8C8D" d="M2072.1-267.9h-1.1v-5.5c0-1.5-0.3-3-2.3-3s-3,1.7-3,3.9v4.6h-1v-9.3h1v1.7c0.5-1.1,1.7-1.9,3-1.9
				c2.7,0,3.3,1.7,3.3,3.9V-267.9z"/>
			<path fill="#7F8C8D" d="M2078.3-273h-4.4v-1h4.4V-273z"/>
			<path fill="#7F8C8D" d="M2089.5-271.1h-2.1v3.2h-1.1v-3.2h-7.1v-0.8l7.2-9.9h1v9.7h2.1V-271.1z M2086.4-272.1v-8.1l-5.9,8.1
				H2086.4z"/>
		</g>
		<g id="col-span-4_11_">
			<path fill="#7F8C8D" d="M1612.9-269c-0.5,0-0.9-0.4-0.9-0.9c0-0.6,0.4-1,0.9-1c0.6,0,1,0.4,1,1
				C1613.8-269.4,1613.4-269,1612.9-269z"/>
			<path fill="#7F8C8D" d="M1624.5-270.6c-0.3,0.4-1.3,1.6-3.8,1.6c-2.5,0-4.5-2-4.5-4.8c0-2.9,2.2-4.8,4.6-4.8
				c2.5,0,3.5,1.3,3.7,1.6l-0.7,0.7c-0.4-0.5-1.2-1.4-3-1.4c-1.9,0-3.5,1.5-3.5,3.8c0,2.3,1.4,4,3.5,4c2.1,0,3.1-1.4,3.1-1.4
				L1624.5-270.6z"/>
			<path fill="#7F8C8D" d="M1630.3-269c-2.6,0-4.7-2-4.7-4.8c0-2.8,2.1-4.8,4.7-4.8c2.7,0,4.8,2,4.8,4.8
				C1635-271,1632.9-269,1630.3-269z M1630.3-277.7c-2.2,0-3.6,1.7-3.6,3.9c0,2.1,1.4,3.9,3.6,3.9c2.3,0,3.7-1.8,3.7-3.9
				C1633.9-276,1632.5-277.7,1630.3-277.7z"/>
			<path fill="#7F8C8D" d="M1638.5-269.2h-1V-283h1V-269.2z"/>
			<path fill="#7F8C8D" d="M1644.9-274.2h-4.4v-1h4.4V-274.2z"/>
			<path fill="#7F8C8D" d="M1649.2-269c-1.7,0-2.8-0.8-3.4-1.8l0.7-0.6c0.6,0.9,1.5,1.5,2.7,1.5s2.2-0.6,2.2-1.8s-1.7-1.6-2.5-1.9
				c-0.8-0.3-2.5-0.9-2.5-2.6c0-1.7,1.5-2.5,2.8-2.5s2.2,0.5,2.9,1.3l-0.6,0.6c-0.6-0.7-1.3-1.1-2.3-1.1c-1,0-1.8,0.5-1.8,1.5
				c0,1,1,1.4,2.1,1.8c1.2,0.4,2.9,1,2.9,2.8C1652.4-270,1650.9-269,1649.2-269z"/>
			<path fill="#7F8C8D" d="M1659.2-269c-1.3,0-2.6-0.5-3.5-1.9v5.5h-1v-13.1h1v1.8c0.8-1.3,2.1-2,3.5-2c2.9,0,4.6,2.1,4.6,4.8
				C1663.8-271,1662-269,1659.2-269z M1659.2-277.7c-2.3,0-3.5,1.8-3.5,3.9c0,2.1,1.2,3.9,3.5,3.9c2.2,0,3.5-1.7,3.5-3.9
				C1662.7-275.9,1661.4-277.7,1659.2-277.7z"/>
			<path fill="#7F8C8D" d="M1672.5-269.2h-1.1v-1.3c-0.3,0.4-1.3,1.5-3.1,1.5s-3.1-1.2-3.1-2.8c0-1.6,1.2-2.7,3.7-2.8l2.5-0.1v-0.5
				c0-1.7-1.1-2.5-2.6-2.5c-1.4,0-2.5,0.6-2.7,0.8l-0.4-0.8c0.6-0.4,1.7-0.9,3.1-0.9s2.2,0.4,2.8,1c0.5,0.6,0.9,1.3,0.9,2.9V-269.2z
				 M1671.4-273.9l-2.6,0.2c-1.9,0.1-2.6,0.9-2.6,1.9s0.8,1.9,2.3,1.9c1.5,0,2.5-1,2.9-1.7V-273.9z"/>
			<path fill="#7F8C8D" d="M1682.6-269.2h-1.1v-5.5c0-1.5-0.3-3-2.3-3s-3,1.7-3,3.9v4.6h-1v-9.3h1v1.7c0.5-1.1,1.7-1.9,3-1.9
				c2.7,0,3.3,1.7,3.3,3.9V-269.2z"/>
			<path fill="#7F8C8D" d="M1688.8-274.2h-4.4v-1h4.4V-274.2z"/>
			<path fill="#7F8C8D" d="M1700-272.4h-2.1v3.2h-1.1v-3.2h-7.1v-0.8l7.2-9.9h1v9.7h2.1V-272.4z M1696.8-273.4v-8.1l-5.9,8.1H1696.8
				z"/>
		</g>
		<g id="col-span-4_10_">
			<path fill="#7F8C8D" d="M1223.1-269.2c-0.5,0-0.9-0.4-0.9-0.9c0-0.6,0.4-1,0.9-1c0.6,0,1,0.4,1,1
				C1224-269.6,1223.6-269.2,1223.1-269.2z"/>
			<path fill="#7F8C8D" d="M1234.7-270.8c-0.3,0.4-1.3,1.6-3.8,1.6s-4.5-2-4.5-4.8c0-2.9,2.2-4.8,4.6-4.8c2.5,0,3.5,1.3,3.7,1.6
				l-0.7,0.7c-0.4-0.5-1.2-1.4-3-1.4c-1.9,0-3.5,1.5-3.5,3.8c0,2.3,1.4,4,3.5,4c2.1,0,3.1-1.4,3.1-1.4L1234.7-270.8z"/>
			<path fill="#7F8C8D" d="M1240.5-269.2c-2.6,0-4.7-2-4.7-4.8c0-2.8,2.1-4.8,4.7-4.8c2.7,0,4.8,2,4.8,4.8
				C1245.2-271.2,1243.1-269.2,1240.5-269.2z M1240.5-277.9c-2.2,0-3.6,1.7-3.6,3.9c0,2.1,1.4,3.9,3.6,3.9c2.3,0,3.7-1.8,3.7-3.9
				C1244.1-276.2,1242.7-277.9,1240.5-277.9z"/>
			<path fill="#7F8C8D" d="M1248.7-269.4h-1v-13.8h1V-269.4z"/>
			<path fill="#7F8C8D" d="M1255.1-274.4h-4.4v-1h4.4V-274.4z"/>
			<path fill="#7F8C8D" d="M1259.4-269.2c-1.7,0-2.8-0.8-3.4-1.8l0.7-0.6c0.6,0.9,1.5,1.5,2.7,1.5c1.2,0,2.2-0.6,2.2-1.8
				s-1.7-1.6-2.5-1.9c-0.8-0.3-2.5-0.9-2.5-2.6c0-1.7,1.5-2.5,2.8-2.5c1.4,0,2.2,0.5,2.9,1.3l-0.6,0.6c-0.6-0.7-1.3-1.1-2.3-1.1
				c-1,0-1.8,0.5-1.8,1.5c0,1,1,1.4,2.1,1.8c1.2,0.4,2.9,1,2.9,2.8C1262.6-270.2,1261.1-269.2,1259.4-269.2z"/>
			<path fill="#7F8C8D" d="M1269.4-269.2c-1.3,0-2.6-0.5-3.5-1.9v5.5h-1v-13.1h1v1.8c0.8-1.3,2.1-2,3.5-2c2.9,0,4.6,2.1,4.6,4.8
				C1274-271.2,1272.2-269.2,1269.4-269.2z M1269.4-277.9c-2.3,0-3.5,1.8-3.5,3.9c0,2.1,1.2,3.9,3.5,3.9c2.2,0,3.5-1.7,3.5-3.9
				C1272.9-276.1,1271.6-277.9,1269.4-277.9z"/>
			<path fill="#7F8C8D" d="M1282.7-269.4h-1.1v-1.3c-0.3,0.4-1.3,1.5-3.1,1.5c-1.8,0-3.1-1.2-3.1-2.8c0-1.6,1.2-2.7,3.7-2.8l2.5-0.1
				v-0.5c0-1.7-1.1-2.5-2.6-2.5c-1.4,0-2.5,0.6-2.7,0.8l-0.4-0.8c0.6-0.4,1.7-0.9,3.1-0.9s2.2,0.4,2.8,1c0.5,0.6,0.9,1.3,0.9,2.9
				V-269.4z M1281.6-274.1l-2.6,0.2c-1.9,0.1-2.6,0.9-2.6,1.9s0.8,1.9,2.3,1.9c1.5,0,2.5-1,2.9-1.7V-274.1z"/>
			<path fill="#7F8C8D" d="M1292.8-269.4h-1.1v-5.5c0-1.5-0.3-3-2.3-3s-3,1.7-3,3.9v4.6h-1v-9.3h1v1.7c0.5-1.1,1.7-1.9,3-1.9
				c2.7,0,3.3,1.7,3.3,3.9V-269.4z"/>
			<path fill="#7F8C8D" d="M1299-274.4h-4.4v-1h4.4V-274.4z"/>
			<path fill="#7F8C8D" d="M1310.2-272.6h-2.1v3.2h-1.1v-3.2h-7.1v-0.8l7.2-9.9h1v9.7h2.1V-272.6z M1307.1-273.6v-8.1l-5.9,8.1
				H1307.1z"/>
		</g>
	</g>
</g>
<g id="Layer_1">
	<rect id="_x3C_Slice_x3E__1_" x="449.8" y="-123" fill="none" width="74.5" height="48.5"/>
	<g>
		<rect id="_x3C_Slice_x3E_" x="-0.2" y="-0.2" fill="none" width="50.2" height="49.2"/>
		<polygon fill="#E7E7E7" points="13.5,13 38.8,5.4 41,13 		"/>
		<polygon fill="#E7E7E7" points="9.3,11.8 26.2,2.1 29.9,7.2 		"/>
		<polygon fill="#E7E7E7" points="45,22.5 29.8,22.5 29.8,37.4 45,37.4 45,45.9 3.5,45.9 3.5,14 45,14 		"/>
		<path fill="#E7E7E7" d="M30.8,23.6v11.7H47V23.6H30.8z M37.1,33c-1.8,0-3.2-1.5-3.2-3.4c0-1.9,1.4-3.4,3.2-3.4s3.2,1.5,3.2,3.4
			C40.3,31.5,38.9,33,37.1,33z"/>
	</g>
</g>
<g id="Layer_3">
</g>
</svg>
