<?xml version="1.0" encoding="utf-8"?>
<!-- Generator: Adobe Illustrator 17.1.0, SVG Export Plug-In . SVG Version: 6.00 Build 0)  -->
<!DOCTYPE svg PUBLIC "-//W3C//DTD SVG 1.1//EN" "http://www.w3.org/Graphics/SVG/1.1/DTD/svg11.dtd">
<svg version="1.1" id="Capa_1" xmlns="http://www.w3.org/2000/svg" xmlns:xlink="http://www.w3.org/1999/xlink" width="76" height="49" x="0px" y="0px"
	 viewBox="-123 -51.5 76 49" enable-background="new -123 -51.5 76 49" xml:space="preserve">
<g>
	<g>
		<path fill="#E7E7E7" d="M-99.1-17.1c-3.7,0-6.7,3-6.7,6.7s3,6.7,6.7,6.7s6.7-3,6.7-6.7C-92.5-14.1-95.5-17.1-99.1-17.1z
			 M-99.1-7.5c-1.6,0-2.9-1.3-2.9-2.9c0-1.6,1.3-2.9,2.9-2.9s2.9,1.3,2.9,2.9C-96.2-8.8-97.5-7.5-99.1-7.5z"/>
		<path fill="#E7E7E7" d="M-63.8-17.1c-3.7,0-6.7,3-6.7,6.7s3,6.7,6.7,6.7s6.7-3,6.7-6.7C-57.2-14.1-60.2-17.1-63.8-17.1z
			 M-63.8-7.5c-1.6,0-2.9-1.3-2.9-2.9c0-1.6,1.3-2.9,2.9-2.9c1.6,0,2.9,1.3,2.9,2.9S-62.2-7.5-63.8-7.5z"/>
		<path fill="#E7E7E7" d="M-91.6-37.7c0,0.9-0.8,1.7-1.7,1.7h-23.6c-0.9,0-1.7-0.8-1.7-1.7v-1c0-0.9,0.8-1.7,1.7-1.7h23.6
			c0.9,0,1.7,0.8,1.7,1.7V-37.7z"/>
		<path fill="#E7E7E7" d="M-50.8-27.8c-2.4-0.6-3.8-1-4.8-2.9l-3.2-6.5c-1-1.9-3.5-3.4-5.5-3.4h-4.4c0,0-0.6,0-0.6-0.6
			c0-1.4,0-5.5,0-5.5c0-2.1-1.2-3.8-3.7-3.8h-35.9c-3.6,0-5.4,1.7-5.4,3.8v3.4c0,0,0,1,1,1c5,0,20,0,20,0c1.9,0,3.4,1.5,3.4,3.4v1
			c0,1.9-1.5,3.4-3.4,3.4h-20c0,0-1-0.1-1,1c0,0.5,0,0.9,0,1.2c0,0.9,1.3,0.9,1.3,0.9h13.5c1.9,0,3.4,1.5,3.4,3.4v1
			c0,1.9-1.5,3.4-3.4,3.4H-113c0,0-1.5,0-1.5,1.2c0,2.1,0,8.3,0,8.3c0,2.1,1.7,3.8,3.8,3.8c0,0,1.6,0,2.1,0s0.6-0.3,0.6-0.4
			c0-4.8,3.9-8.7,8.7-8.7c4.8,0,8.7,3.9,8.7,8.7c0,0.1,0,0.4,0.3,0.4c4.2,0,17.1,0,17.1,0c0.3,0,0.3-0.3,0.3-0.4
			c0-4.8,3.9-8.7,8.7-8.7c4.8,0,8.7,3.9,8.7,8.7c0,0.1,0,0.4,0.2,0.4c1.9,0,4.3,0,4.3,0c2.1,0,3.8-1.7,3.8-3.8v-7.2
			C-46.8-27.2-48.7-27.2-50.8-27.8z M-58-28.1c0,0-8.1,0-10.8,0c-0.4,0-0.5-0.4-0.5-0.4v-9c0,0,0-0.3,0.5-0.3c0.8,0,3.1,0,3.1,0
			c1.9,0,4.1,1.4,4.9,3l2.9,5.8c0.1,0.2,0.2,0.4,0.4,0.6C-57.4-28.3-57.6-28.1-58-28.1z"/>
		<path fill="#E7E7E7" d="M-97.9-26.8c0,0.9-0.8,1.7-1.7,1.7h-21.7c-0.9,0-1.7-0.8-1.7-1.7v-1c0-0.9,0.8-1.7,1.7-1.7h21.7
			c0.9,0,1.7,0.8,1.7,1.7V-26.8z"/>
	</g>
</g>
</svg>
