<?xml version="1.0" encoding="utf-8"?>
<!-- Generator: Adobe Illustrator 17.1.0, SVG Export Plug-In . SVG Version: 6.00 Build 0)  -->
<!DOCTYPE svg PUBLIC "-//W3C//DTD SVG 1.1//EN" "http://www.w3.org/Graphics/SVG/1.1/DTD/svg11.dtd">
<svg version="1.1" id="Layer_1" xmlns="http://www.w3.org/2000/svg" xmlns:xlink="http://www.w3.org/1999/xlink" width="20" height="20" x="0px" y="0px"
	 viewBox="0 0 20 20" enable-background="new 0 0 20 20" xml:space="preserve">
<g>
	<path fill="#FFFFFF" d="M0.1,0.1v20h20v-20H0.1z M16.4,11.3c0.1,0.1,0.4,0.8,0.8,0.8h0l0,0l0,0l0,0c0.9,0.8,1.5,1.5,1.8,2.1
		c0,0,0,0.1,0.1,0.1c0,0,0,0.1,0.1,0.3c0,0.1,0,0.2,0,0.3c0,0.1-0.1,0.2-0.2,0.3c-0.1,0.1-0.3,0.1-0.6,0.1l-2.4,0
		c-0.2,0-0.3,0-0.5,0c-0.2-0.1-0.4-0.1-0.5-0.2l-0.2-0.1c-0.2-0.1-0.4-0.3-0.7-0.6c-0.3-0.3-0.5-0.5-0.6-0.7
		c-0.2-0.2-0.4-0.4-0.6-0.5c-0.2-0.1-0.4-0.2-0.5-0.1c0,0,0,0-0.1,0c0,0-0.1,0.1-0.2,0.1c-0.1,0.1-0.1,0.2-0.2,0.3
		c-0.1,0.1-0.1,0.3-0.2,0.5c0,0.2-0.1,0.5-0.1,0.7c0,0.1,0,0.2,0,0.3c0,0.1,0,0.1-0.1,0.2l0,0c-0.1,0.1-0.3,0.1-0.5,0.1H9.9
		c-0.4,0-0.9,0-1.4-0.1c-0.5-0.1-0.9-0.2-1.2-0.4c-0.4-0.2-0.7-0.4-1-0.6c-0.3-0.2-0.5-0.4-0.7-0.5l-0.2-0.2
		c-0.1-0.1-0.2-0.2-0.3-0.3c-0.1-0.1-0.3-0.4-0.7-0.9c-0.3-0.4-0.7-0.9-1-1.4c-0.3-0.5-0.7-1.2-1.2-2C1.9,7.8,1.5,6.9,1.1,6.1
		C1,6,1,5.9,1,5.8s0-0.1,0-0.2l0-0.1c0.1-0.1,0.3-0.2,0.5-0.2l2.6,0c0.1,0,0.1,0,0.2,0.1c0.1,0,0.1,0.1,0.2,0.1l0,0
		c0.1,0.1,0.2,0.2,0.2,0.3c0.1,0.3,0.3,0.6,0.4,1c0.2,0.3,0.3,0.6,0.4,0.8l0.2,0.3c0.2,0.4,0.4,0.7,0.5,1c0.2,0.3,0.3,0.5,0.5,0.6
		C7,9.7,7.1,9.8,7.2,9.9S7.5,10,7.6,10c0.1,0,0.2,0,0.3,0c0,0,0,0,0,0c0,0,0.1-0.1,0.1-0.2C8,9.6,8.1,9.5,8.1,9.3
		c0-0.2,0.1-0.4,0.1-0.8c0-0.3,0-0.7,0-1.2c0-0.3,0-0.5-0.1-0.7C8.1,6.4,8,6.3,8,6.2L7.9,6.1C7.8,5.9,7.5,5.7,7.1,5.7
		C7,5.7,7,5.6,7.2,5.4c0.1-0.1,0.2-0.2,0.4-0.3C7.9,5,8.6,4.9,9.8,4.9c0.5,0,0.9,0,1.3,0.1c0.1,0,0.2,0.1,0.3,0.1
		c0.1,0.1,0.2,0.1,0.2,0.2c0,0.1,0.1,0.2,0.1,0.3c0,0.1,0,0.2,0,0.4c0,0.2,0,0.4,0,0.5c0,0.2,0,0.4,0,0.7c0,0.3,0,0.5,0,0.8
		c0,0.1,0,0.2,0,0.4c0,0.2,0,0.3,0,0.5c0,0.1,0,0.2,0,0.4c0,0.1,0.1,0.3,0.1,0.4c0.1,0.1,0.1,0.2,0.2,0.2c0.1,0,0.1,0,0.2,0
		c0.1,0,0.1,0,0.2-0.1c0.1-0.1,0.2-0.2,0.4-0.3c0.1-0.1,0.3-0.3,0.5-0.6c0.2-0.3,0.4-0.6,0.6-1c0.4-0.7,0.7-1.4,1-2.1
		c0-0.1,0.1-0.1,0.1-0.2c0,0,0.1-0.1,0.1-0.1l0,0l0,0c0,0,0,0,0.1,0c0.1,0,0.1,0,0.2,0l2.7,0c0.2,0,0.4,0,0.6,0
		c0.2,0,0.3,0.1,0.3,0.2l0.1,0.1c0.1,0.4-0.3,1.3-1.4,2.8c-0.2,0.2-0.4,0.5-0.6,0.8c-0.5,0.6-0.8,1.1-0.9,1.3
		C16.2,10.8,16.2,11.1,16.4,11.3z"/>
	<path fill="#272727" d="M17.2,9.3c0.3-0.3,0.5-0.6,0.6-0.8c1.1-1.5,1.6-2.4,1.4-2.8l-0.1-0.1c0-0.1-0.1-0.1-0.3-0.2
		c-0.2,0-0.4-0.1-0.6,0l-2.7,0c0,0-0.1,0-0.2,0c-0.1,0-0.1,0-0.1,0l0,0l0,0c0,0-0.1,0.1-0.1,0.1c0,0-0.1,0.1-0.1,0.2
		c-0.3,0.8-0.6,1.5-1,2.1c-0.2,0.4-0.4,0.7-0.6,1c-0.2,0.3-0.4,0.5-0.5,0.6c-0.1,0.1-0.3,0.2-0.4,0.3C12.3,10,12.2,10,12.2,10
		c-0.1,0-0.1,0-0.2,0c-0.1-0.1-0.2-0.1-0.2-0.2c-0.1-0.1-0.1-0.2-0.1-0.4c0-0.1,0-0.3,0-0.4c0-0.1,0-0.3,0-0.5c0-0.2,0-0.3,0-0.4
		c0-0.2,0-0.5,0-0.8c0-0.3,0-0.5,0-0.7c0-0.2,0-0.3,0-0.5c0-0.2,0-0.3,0-0.4c0-0.1-0.1-0.2-0.1-0.3c0-0.1-0.1-0.2-0.2-0.2
		c-0.1-0.1-0.2-0.1-0.3-0.1C10.7,5,10.3,4.9,9.8,4.9C8.6,4.9,7.9,5,7.5,5.2C7.4,5.2,7.3,5.3,7.2,5.4C7,5.6,7,5.7,7.1,5.7
		c0.4,0.1,0.6,0.2,0.8,0.4L8,6.2c0,0.1,0.1,0.2,0.1,0.4c0,0.2,0.1,0.4,0.1,0.7c0,0.5,0,0.9,0,1.2c0,0.3-0.1,0.6-0.1,0.8
		C8.1,9.5,8,9.6,8,9.7C7.9,9.8,7.9,9.9,7.9,9.9c0,0,0,0,0,0c-0.1,0-0.2,0-0.3,0c-0.1,0-0.2,0-0.3-0.1S7,9.7,6.8,9.5
		C6.7,9.4,6.5,9.2,6.4,8.9C6.2,8.6,6,8.3,5.8,7.9L5.7,7.6C5.6,7.4,5.5,7.2,5.3,6.8C5.1,6.5,5,6.2,4.9,5.9C4.8,5.7,4.7,5.6,4.6,5.6
		l0,0c0,0-0.1-0.1-0.2-0.1c-0.1,0-0.1,0-0.2-0.1l-2.6,0c-0.3,0-0.4,0.1-0.5,0.2l0,0.1c0,0,0,0.1,0,0.2S1,6,1.1,6.1
		c0.4,0.9,0.8,1.8,1.2,2.6c0.4,0.8,0.8,1.5,1.2,2c0.3,0.5,0.7,1,1,1.4c0.3,0.4,0.6,0.7,0.7,0.9c0.1,0.1,0.2,0.2,0.3,0.3l0.2,0.2
		C5.8,13.6,6,13.8,6.3,14c0.3,0.2,0.6,0.4,1,0.6c0.4,0.2,0.8,0.3,1.2,0.4c0.5,0.1,0.9,0.1,1.4,0.1H11c0.2,0,0.4,0,0.5-0.1l0,0
		c0,0,0-0.1,0.1-0.2c0-0.1,0-0.2,0-0.3c0-0.3,0-0.5,0.1-0.7c0-0.2,0.1-0.4,0.2-0.5c0.1-0.1,0.1-0.2,0.2-0.3c0.1-0.1,0.1-0.1,0.2-0.1
		c0,0,0.1,0,0.1,0c0.2-0.1,0.3,0,0.5,0.1c0.2,0.1,0.4,0.3,0.6,0.5c0.2,0.2,0.4,0.5,0.6,0.7c0.3,0.3,0.5,0.5,0.7,0.6l0.2,0.1
		c0.1,0.1,0.3,0.1,0.5,0.2c0.2,0.1,0.4,0.1,0.5,0l2.4,0c0.2,0,0.4,0,0.6-0.1c0.1-0.1,0.2-0.2,0.2-0.3c0-0.1,0-0.2,0-0.3
		c0-0.1,0-0.2-0.1-0.3c0,0,0-0.1-0.1-0.1c-0.3-0.6-0.9-1.3-1.8-2.1l0,0l0,0l0,0h0c-0.4,0-0.7-0.7-0.8-0.8c-0.2-0.3-0.2-0.5-0.1-0.8
		C16.4,10.3,16.7,9.9,17.2,9.3z"/>
</g>
</svg>
